<svg width="66" height="67" viewBox="0 0 66 67" fill="none" xmlns="http://www.w3.org/2000/svg">
<rect x="5" y="5.5" width="56" height="56" rx="28" fill="#D1FADF"/>
<rect x="5" y="5.5" width="56" height="56" rx="28" stroke="#ECFDF3" stroke-width="10"/>
<path d="M44.6666 32.4267V33.5C44.6652 36.0158 43.8505 38.4638 42.3441 40.4788C40.8378 42.4938 38.7204 43.9679 36.3078 44.6812C33.8953 45.3945 31.3167 45.3089 28.9568 44.437C26.5969 43.5652 24.582 41.9538 23.2127 39.8433C21.8434 37.7327 21.193 35.2361 21.3585 32.7257C21.5241 30.2153 22.4967 27.8257 24.1312 25.9133C25.7658 24.0008 27.9748 22.668 30.4288 22.1135C32.8828 21.5591 35.4502 21.8127 37.7483 22.8367M44.6666 24.1667L32.9999 35.845L29.4999 32.345" stroke="#039855" stroke-width="2.33333" stroke-linecap="round" stroke-linejoin="round"/>
</svg>
