<svg width="53" height="43" viewBox="0 0 53 43" fill="none" xmlns="http://www.w3.org/2000/svg">
<path d="M3.95671 7.96498C6.14194 7.96498 7.91341 6.19191 7.91341 4.00471C7.91341 1.81751 6.14194 0.0444336 3.95671 0.0444336C1.77148 0.0444336 0 1.81751 0 4.00471C0 6.19191 1.77148 7.96498 3.95671 7.96498Z" fill="#2A66BC"/>
<path d="M23.9912 1.27018C22.9238 1.65815 19.7105 3.6261 17.8941 5.09363L17.8904 5.08614C16.8324 5.97078 16.5009 7.45518 17.0814 8.70717C18.0102 10.707 20.5513 11.2974 22.289 9.94042C24.7102 8.04744 27.7587 6.91914 31.0713 6.91914C35.9231 6.91914 40.2075 9.34066 42.7897 13.0404C43.3852 13.852 43.9039 14.7366 44.3271 15.6887C50.7593 30.1354 32.6049 43.2832 21.2947 31.796C20.1524 30.6358 19.1843 29.2863 18.3192 27.8094L10.7148 11.0593C10.08 9.66116 8.61 8.84024 7.08949 9.03141C4.79186 9.32005 3.40055 11.721 4.29376 13.8613L6.40226 18.9237C12.5293 32.3695 16.5796 43.8248 34.0561 42.6047C43.5987 41.9375 51.5589 33.5259 52.63 24.1509C54.4089 8.57035 38.9267 -4.15388 23.9912 1.27393V1.27018Z" fill="#1D5166"/>
<path d="M34.6067 30.4971V21.8006C34.9025 21.9243 35.9793 21.2009 36.0542 21.2271C36.4436 21.3639 37.0185 22.2542 37.159 22.6422C37.1908 22.7284 37.3518 23.2551 37.3518 23.2888V26.1489L37.8705 25.4086C40.4977 20.8317 38.0821 14.9634 33.0244 13.5821C26.1109 11.6929 20.394 19.0043 23.8208 25.3111L24.3938 26.1489V23.2888C24.3938 23.2551 24.5548 22.7284 24.5866 22.6422C24.7271 22.2542 25.302 21.3639 25.6914 21.2271C25.7645 21.2009 26.8431 21.9243 27.1389 21.8006V30.4971C24.0679 29.2882 21.6505 26.3213 21.1393 23.0358C19.7592 14.1537 29.7324 8.04933 36.8893 13.5277C42.9246 18.1496 41.6044 27.6839 34.6085 30.4953L34.6067 30.4971Z" fill="#2A66BC"/>
<path d="M30.3204 19.9114C30.3616 19.9508 30.62 20.4475 30.6219 20.5243L30.1238 23.3488C30.1388 23.4144 30.7848 24.0629 30.8503 24.0797C31.0601 24.136 31.472 23.5831 31.6237 23.4238L31.1256 20.5243L31.4271 19.9133L32.648 19.366C33.427 19.8814 33.8389 20.7605 33.9251 21.6826L33.9157 30.7952C31.8952 31.3912 29.8541 31.3912 27.8336 30.7952L27.8243 21.6826C27.9104 20.7605 28.3224 19.8833 29.1014 19.366L30.3241 19.9114H30.3204Z" fill="#2A66BC"/>
<path d="M30.5488 15.4114C33.2659 15.0271 33.5356 19.0605 30.9833 19.2067C28.5808 19.3454 28.2493 15.7356 30.5488 15.4114Z" fill="#2A66BC"/>
<path d="M28.2681 17.4636C28.1726 17.8029 28.7362 18.6219 28.6276 18.8243C28.5789 18.9143 28.2849 19.0699 28.1651 19.2048C27.7138 19.7071 27.3599 20.3725 27.2082 21.0322C24.3451 20.5187 25.5117 16.4103 28.27 17.4655L28.2681 17.4636Z" fill="#2A66BC"/>
<path d="M34.5374 21.0304C34.3839 20.3706 34.0299 19.7053 33.5805 19.203C33.4588 19.068 33.1218 18.8843 33.0918 18.77C33.0656 18.6688 33.3727 18.0241 33.4307 17.8329C33.5431 17.4637 33.3895 17.3737 33.9663 17.3025C36.5766 16.9782 37.0541 20.6724 34.5374 21.0285V21.0304Z" fill="#2A66BC"/>
</svg>
