<svg width="75" height="30" viewBox="0 0 75 30" fill="none" xmlns="http://www.w3.org/2000/svg">
<path d="M5.94176 1.14436L4.23025 5.86932L2.51311 1.14436C2.38578 0.793876 2.05434 0.557722 1.67983 0.557722C1.19296 0.557722 0.792236 0.953186 0.792236 1.44611V7.89913C0.792236 8.23649 1.06563 8.51388 1.40643 8.51388C1.74724 8.51388 2.02063 8.24024 2.02063 7.89913V3.04672L3.5168 7.02386C3.62915 7.31624 3.91191 7.51116 4.22463 7.51116C4.53735 7.51116 4.82385 7.31624 4.93246 7.01823L6.43424 2.93801V7.89725C6.43424 8.23462 6.70764 8.51201 7.04844 8.51201C7.38925 8.51201 7.66264 8.23837 7.66264 7.89725V1.44424C7.66264 0.956936 7.26753 0.555847 6.77505 0.555847C6.40054 0.555847 6.06722 0.790128 5.94176 1.14249" fill="#1D5166"/>
<path d="M14.6267 8.51343C14.3495 8.51343 14.1005 8.33725 14.0125 8.07485L13.6417 7.00654L13.2073 5.75267L12.11 2.58895L11.0127 5.75267L10.5782 7.00654L10.2075 8.07485C10.1157 8.33912 9.8704 8.51343 9.59326 8.51343C9.1401 8.51343 8.82177 8.05986 8.98281 7.63066L11.4696 1.00334C11.5613 0.735321 11.816 0.559143 12.1044 0.559143C12.3927 0.559143 12.6455 0.735321 12.7485 1.00334L15.2353 7.63066C15.3963 8.05986 15.078 8.51343 14.6248 8.51343" fill="#1D5166"/>
<path d="M17.9036 7.25955L21.1412 1.92358C21.2293 1.78301 21.2723 1.62183 21.2723 1.45502C21.2723 0.956472 20.8678 0.551636 20.3697 0.551636H17.0535C16.707 0.551636 16.4299 0.829024 16.4299 1.17576C16.4299 1.52249 16.707 1.79988 17.0535 1.79988H19.7069L16.458 7.13585C16.37 7.27642 16.3269 7.4376 16.3269 7.60441C16.3269 8.10296 16.7314 8.50779 17.2295 8.50779H20.7555C21.1019 8.50779 21.3791 8.22478 21.3791 7.88367C21.3791 7.54256 21.1019 7.25955 20.7555 7.25955H17.9017H17.9036Z" fill="#1D5166"/>
<path d="M27.9648 8.51343C27.6877 8.51343 27.4386 8.33725 27.3506 8.07485L26.9799 7.00654L26.5454 5.75267L25.4481 2.58895L24.3508 5.75267L23.9164 7.00654L23.5456 8.07485C23.4538 8.33912 23.2085 8.51343 22.9314 8.51343C22.4782 8.51343 22.1599 8.05986 22.3209 7.63066L24.8077 1.00334C24.8994 0.735321 25.1579 0.559143 25.4425 0.559143C25.7271 0.559143 25.9837 0.735321 26.0866 1.00334L28.5734 7.63066C28.7344 8.05986 28.4161 8.51343 27.9629 8.51343" fill="#1D5166"/>
<path d="M32.8559 0.91898L31.3935 4.06771L29.931 0.91898C29.828 0.699693 29.6089 0.557251 29.3655 0.557251C28.903 0.557251 28.5996 1.04455 28.8056 1.46064L30.7418 5.36093V7.8593C30.7418 8.22103 31.0339 8.50779 31.3897 8.50779C31.7455 8.50779 32.0376 8.2154 32.0376 7.8593V5.36093L33.9738 1.46064C34.1873 1.04643 33.8858 0.557251 33.4233 0.557251C33.1799 0.557251 32.9608 0.697819 32.8578 0.91898" fill="#1D5166"/>
<path d="M39.8574 8.51343C39.5803 8.51343 39.3312 8.33725 39.2432 8.07485L38.8724 7.00654L38.438 5.75267L37.3407 2.58895L36.2434 5.75267L35.8089 7.00654L35.4382 8.07485C35.3464 8.33912 35.1011 8.51343 34.824 8.51343C34.3708 8.51343 34.0525 8.05986 34.2135 7.63066L36.7003 1.00334C36.792 0.735321 37.0504 0.559143 37.3388 0.559143C37.6272 0.559143 37.88 0.735321 37.983 1.00334L40.4697 7.63066C40.627 8.05986 40.3124 8.51343 39.8555 8.51343" fill="#1D5166"/>
<path d="M13.8496 21.5212C14.4656 22.3121 14.7727 23.2155 14.7727 24.2332C14.7727 25.6989 14.2615 26.8609 13.2372 27.7193C12.2129 28.5777 10.7861 29.0069 8.95657 29.0069H0.792236V11.4659H8.68131C10.4621 11.4659 11.8553 11.8745 12.8627 12.6898C13.8702 13.5069 14.3739 14.6146 14.3739 16.0128C14.3739 17.0455 14.1024 17.9039 13.5631 18.5861C13.0219 19.2702 12.3028 19.7444 11.404 20.0106C12.4189 20.228 13.2354 20.7321 13.8514 21.5231L13.8496 21.5212ZM5.06166 18.5599H7.85739C8.55585 18.5599 9.09327 18.4062 9.46778 18.097C9.84229 17.7896 10.0295 17.3341 10.0295 16.7344C10.0295 16.1346 9.84229 15.6773 9.46778 15.3606C9.09327 15.0438 8.55585 14.8864 7.85739 14.8864H5.06166V18.5599ZM9.86663 25.0691C10.258 24.7449 10.4527 24.2745 10.4527 23.6578C10.4527 23.0412 10.2486 22.5576 9.84042 22.209C9.4322 21.8586 8.87044 21.6842 8.15512 21.6842H5.05979V25.5583H8.20568C8.92099 25.5583 9.47527 25.3952 9.86476 25.071L9.86663 25.0691Z" fill="#2A66BC"/>
<path d="M19.9035 28.3304C18.8137 27.7475 17.9561 26.9153 17.3325 25.832C16.709 24.7487 16.3962 23.4836 16.3962 22.0348C16.3962 20.586 16.7127 19.3396 17.3456 18.2488C17.9785 17.158 18.8437 16.3202 19.9429 15.7373C21.042 15.1544 22.2723 14.8621 23.6374 14.8621C25.0025 14.8621 26.2328 15.1544 27.332 15.7373C28.4311 16.3202 29.2963 17.158 29.9273 18.2488C30.5602 19.3396 30.8767 20.6029 30.8767 22.0348C30.8767 23.4667 30.5565 24.7299 29.9161 25.8208C29.2757 26.9116 28.4012 27.7493 27.2945 28.3322C26.1878 28.9151 24.9519 29.2075 23.5868 29.2075C22.2218 29.2075 20.9952 28.917 19.9035 28.3322V28.3304ZM25.671 24.6062C26.2459 24.0065 26.5324 23.1481 26.5324 22.0329C26.5324 20.9177 26.2534 20.0593 25.6953 19.4596C25.1373 18.8598 24.4501 18.5599 23.6355 18.5599C22.821 18.5599 22.1131 18.8561 21.5626 19.4465C21.014 20.0387 20.7387 20.9009 20.7387 22.0329C20.7387 23.165 21.0083 24.0065 21.5495 24.6062C22.0907 25.206 22.7685 25.5059 23.585 25.5059C24.4014 25.5059 25.0961 25.206 25.6691 24.6062H25.671Z" fill="#2A66BC"/>
<path d="M33.1088 18.2338C33.65 17.1505 34.3859 16.3183 35.3184 15.7354C36.2509 15.1525 37.2902 14.8602 38.4399 14.8602C39.4212 14.8602 40.2825 15.0607 41.0241 15.4599C41.7637 15.8591 42.3349 16.3839 42.7337 17.0343V15.0607H47.0031V29.0032H42.7337V27.0296C42.318 27.68 41.7394 28.2048 40.9979 28.604C40.2563 29.0032 39.3949 29.2037 38.4137 29.2037C37.2808 29.2037 36.2491 28.9076 35.3184 28.3172C34.3859 27.7268 33.65 26.8853 33.1088 25.7926C32.5676 24.7018 32.298 23.4404 32.298 22.0067C32.298 20.5729 32.5676 19.3171 33.1088 18.2338ZM41.848 19.5083C41.2563 18.8917 40.5372 18.5843 39.689 18.5843C38.8407 18.5843 38.1197 18.8879 37.5299 19.497C36.9382 20.1062 36.6442 20.9421 36.6442 22.0085C36.6442 23.075 36.94 23.9203 37.5299 24.5444C38.1197 25.1685 38.8407 25.4815 39.689 25.4815C40.5372 25.4815 41.2581 25.1741 41.848 24.5575C42.4379 23.9409 42.7337 23.0993 42.7337 22.0329C42.7337 20.9665 42.4379 20.1249 41.848 19.5083Z" fill="#2A66BC"/>
<path d="M56.2404 15.5724C56.9894 15.1319 57.8208 14.9108 58.7365 14.9108V19.4333H57.5624C56.4969 19.4333 55.6974 19.662 55.1656 20.1212C54.6319 20.5803 54.366 21.3825 54.366 22.5314V29.0032H50.0966V15.0607H54.366V17.3848C54.866 16.6182 55.4895 16.0147 56.2385 15.5724H56.2404Z" fill="#2A66BC"/>
<path d="M60.7457 18.2338C61.2869 17.1505 62.0228 16.3183 62.9554 15.7354C63.8879 15.1525 64.9272 14.8602 66.0769 14.8602C66.9926 14.8602 67.8277 15.0513 68.5861 15.4356C69.3426 15.8179 69.9381 16.3352 70.3707 16.9856V10.5138H74.6401V29.0051H70.3707V27.0053C69.9718 27.6725 69.4007 28.2048 68.661 28.604C67.9195 29.0032 67.0581 29.2037 66.0769 29.2037C64.929 29.2037 63.8879 28.9076 62.9554 28.3172C62.0228 27.7268 61.2869 26.8853 60.7457 25.7926C60.2046 24.7018 59.9349 23.4404 59.9349 22.0066C59.9349 20.5729 60.2046 19.3171 60.7457 18.2338ZM69.4831 19.5083C68.8914 18.8917 68.1723 18.5843 67.324 18.5843C66.4758 18.5843 65.7548 18.8879 65.165 19.497C64.5733 20.1062 64.2793 20.9421 64.2793 22.0085C64.2793 23.075 64.5751 23.9202 65.165 24.5444C65.7548 25.1685 66.4758 25.4815 67.324 25.4815C68.1723 25.4815 68.8932 25.1741 69.4831 24.5575C70.0729 23.9409 70.3688 23.0993 70.3688 22.0329C70.3688 20.9664 70.0729 20.1249 69.4831 19.5083Z" fill="#2A66BC"/>
</svg>
