<svg width="275" height="84" viewBox="0 0 275 84" fill="none" xmlns="http://www.w3.org/2000/svg">
<path d="M127.825 53.9421C128.84 55.2448 129.345 56.7327 129.345 58.4089C129.345 60.823 128.504 62.7369 126.817 64.1507C125.13 65.5646 122.781 66.2715 119.768 66.2715H106.324V37.3804H119.315C122.247 37.3804 124.541 38.0533 126.2 39.3962C127.859 40.7421 128.689 42.5665 128.689 44.8694C128.689 46.5703 128.242 47.9842 127.354 49.1078C126.462 50.2346 125.278 51.0156 123.798 51.4539C125.469 51.812 126.814 52.6424 127.828 53.9451L127.825 53.9421ZM113.354 49.0646H117.958C119.108 49.0646 119.993 48.8115 120.61 48.3021C121.227 47.7959 121.535 47.0457 121.535 46.0579C121.535 45.0701 121.227 44.3168 120.61 43.7951C119.993 43.2734 119.108 43.0141 117.958 43.0141H113.354V49.0646ZM121.267 59.7857C121.911 59.2517 122.232 58.4768 122.232 57.4612C122.232 56.4456 121.896 55.6492 121.223 55.075C120.551 54.4977 119.626 54.2106 118.448 54.2106H113.351V60.5914H118.531C119.709 60.5914 120.622 60.3229 121.264 59.7888L121.267 59.7857Z" fill="#3B6DA7"/>
<path d="M137.795 65.1567C136 64.1967 134.588 62.826 133.561 61.0418C132.534 59.2575 132.019 57.1738 132.019 54.7875C132.019 52.4013 132.54 50.3484 133.582 48.5518C134.625 46.7552 136.049 45.3753 137.859 44.4153C139.669 43.4552 141.695 42.9736 143.943 42.9736C146.191 42.9736 148.217 43.4552 150.027 44.4153C151.837 45.3753 153.262 46.7552 154.301 48.5518C155.343 50.3484 155.864 52.4291 155.864 54.7875C155.864 57.146 155.337 59.2266 154.282 61.0232C153.228 62.8199 151.788 64.1998 149.965 65.1598C148.143 66.1199 146.108 66.6014 143.86 66.6014C141.612 66.6014 139.592 66.1229 137.795 65.1598V65.1567ZM147.292 59.0229C148.239 58.035 148.71 56.6212 148.71 54.7844C148.71 52.9477 148.251 51.5338 147.332 50.546C146.413 49.5582 145.281 49.0643 143.94 49.0643C142.599 49.0643 141.433 49.552 140.527 50.5244C139.623 51.4999 139.17 52.9199 139.17 54.7844C139.17 56.649 139.614 58.035 140.505 59.0229C141.396 60.0107 142.512 60.5046 143.857 60.5046C145.201 60.5046 146.345 60.0107 147.289 59.0229H147.292Z" fill="#3B6DA7"/>
<path d="M159.54 48.5273C160.431 46.743 161.643 45.3724 163.178 44.4123C164.714 43.4523 166.425 42.9707 168.319 42.9707C169.934 42.9707 171.353 43.301 172.574 43.9585C173.792 44.6161 174.732 45.4804 175.389 46.5516V43.301H182.42V66.2651H175.389V63.0145C174.705 64.0857 173.752 64.9501 172.531 65.6076C171.31 66.2651 169.891 66.5954 168.275 66.5954C166.41 66.5954 164.711 66.1077 163.178 65.1353C161.643 64.1629 160.431 62.7768 159.54 60.9771C158.649 59.1805 158.205 57.1029 158.205 54.7414C158.205 52.3798 158.649 50.3116 159.54 48.5273ZM173.931 50.6264C172.956 49.6108 171.772 49.1045 170.375 49.1045C168.979 49.1045 167.791 49.6046 166.82 50.6079C165.846 51.6112 165.362 52.988 165.362 54.7445C165.362 56.501 165.849 57.8932 166.82 58.9212C167.791 59.9491 168.979 60.4647 170.375 60.4647C171.772 60.4647 172.959 59.9584 173.931 58.9428C174.902 57.9272 175.389 56.5411 175.389 54.7846C175.389 53.0281 174.902 51.6421 173.931 50.6264Z" fill="#3B6DA7"/>
<path d="M197.631 44.1439C198.864 43.4185 200.233 43.0542 201.741 43.0542V50.5031H199.808C198.053 50.5031 196.737 50.8797 195.861 51.636C194.982 52.3923 194.544 53.7136 194.544 55.6059V66.2653H187.514V43.3012H194.544V47.129C195.367 45.8664 196.394 44.8724 197.628 44.1439H197.631Z" fill="#3B6DA7"/>
<path d="M205.05 48.5273C205.941 46.743 207.153 45.3724 208.688 44.4124C210.224 43.4523 211.935 42.9707 213.828 42.9707C215.336 42.9707 216.711 43.2856 217.96 43.9184C219.206 44.5482 220.187 45.4002 220.899 46.4714V35.812H227.929V66.2682H220.899V62.9744C220.242 64.0734 219.302 64.9501 218.084 65.6076C216.863 66.2651 215.444 66.5954 213.828 66.5954C211.938 66.5954 210.224 66.1077 208.688 65.1353C207.153 64.1629 205.941 62.7768 205.05 60.9771C204.158 59.1805 203.714 57.103 203.714 54.7414C203.714 52.3799 204.158 50.3116 205.05 48.5273ZM219.437 50.6265C218.463 49.6108 217.279 49.1046 215.882 49.1046C214.485 49.1046 213.298 49.6047 212.327 50.6079C211.352 51.6112 210.868 52.988 210.868 54.7445C210.868 56.501 211.355 57.8932 212.327 58.9212C213.298 59.9492 214.485 60.4647 215.882 60.4647C217.279 60.4647 218.466 59.9584 219.437 58.9428C220.409 57.9272 220.896 56.5411 220.896 54.7846C220.896 53.0281 220.409 51.6421 219.437 50.6265Z" fill="#3B6DA7"/>
<path d="M7.7919 19.1457C11.3903 19.1457 14.3074 16.2253 14.3074 12.6229C14.3074 9.02046 11.3903 6.1001 7.7919 6.1001C4.19347 6.1001 1.27637 9.02046 1.27637 12.6229C1.27637 16.2253 4.19347 19.1457 7.7919 19.1457Z" fill="#3B6DA7"/>
<path d="M40.7828 8.11891C39.0252 8.75792 33.7338 11.9993 30.7427 14.4164L30.7366 14.404C28.9944 15.8611 28.4486 18.306 29.4045 20.3681C30.9339 23.6619 35.1183 24.6343 37.9798 22.3993C41.9669 19.2815 46.9869 17.4231 52.4417 17.4231C60.4311 17.4231 67.4863 21.4115 71.7385 27.5052C72.7191 28.8419 73.5732 30.2989 74.2701 31.8671C84.8621 55.6616 54.9671 77.3168 36.3425 58.3967C34.4615 56.4858 32.8673 54.2632 31.4427 51.8307L18.9204 24.2422C17.8751 21.9394 15.4545 20.5873 12.9507 20.9021C9.16717 21.3775 6.87609 25.332 8.34694 28.8573L11.819 37.1952C21.9084 59.3413 28.5781 78.209 57.3568 76.1993C73.0706 75.1004 86.1788 61.246 87.9425 45.8049C90.8719 20.1427 65.3771 -0.814827 40.7828 8.12509V8.11891Z" fill="#243348"/>
<path d="M58.2636 56.2573V41.9337C58.7508 42.1375 60.5239 40.9459 60.6472 40.9891C61.2886 41.2144 62.2353 42.6808 62.4665 43.3198C62.5189 43.4618 62.7841 44.3292 62.7841 44.3848V49.0955L63.6383 47.8762C67.9645 40.3377 63.9867 30.6724 55.658 28.3973C44.2736 25.2856 34.8595 37.3279 40.5024 47.7156L41.446 49.0955V44.3848C41.446 44.3292 41.7112 43.4618 41.7636 43.3198C41.9948 42.6808 42.9415 41.2144 43.5829 40.9891C43.7031 40.9459 45.4793 42.1375 45.9665 41.9337V56.2573C40.9094 54.2662 36.9286 49.3795 36.0868 43.968C33.8142 29.3388 50.2372 19.2845 62.0225 28.3078C71.9608 35.9203 69.7869 51.6238 58.2667 56.2542L58.2636 56.2573Z" fill="#3B6DA7"/>
<path d="M51.2056 38.8221C51.2734 38.887 51.699 39.705 51.702 39.8316L50.8818 44.4837C50.9065 44.5917 51.9703 45.6598 52.0782 45.6876C52.4236 45.7802 53.102 44.8695 53.3517 44.6072L52.5315 39.8316L53.028 38.8252L55.0384 37.9238C56.3212 38.7727 56.9996 40.2205 57.1414 41.7393L57.126 56.7483C53.7988 57.7299 50.4378 57.7299 47.1106 56.7483L47.0952 41.7393C47.2371 40.2205 47.9154 38.7758 49.1982 37.9238L51.2118 38.8221H51.2056Z" fill="#3B6DA7"/>
<path d="M51.5817 31.4102C56.0559 30.7773 56.4999 37.4205 52.297 37.6613C48.3408 37.8897 47.7951 31.9442 51.5817 31.4102Z" fill="#3B6DA7"/>
<path d="M47.8257 34.7904C47.6684 35.3491 48.5966 36.6981 48.4177 37.0315C48.3376 37.1797 47.8534 37.4359 47.6561 37.6582C46.913 38.4855 46.3302 39.5814 46.0804 40.668C41.3657 39.8222 43.2867 33.0555 47.8288 34.7935L47.8257 34.7904Z" fill="#3B6DA7"/>
<path d="M58.1497 40.6649C57.8969 39.5783 57.3141 38.4824 56.574 37.6551C56.3736 37.4328 55.8185 37.1303 55.7692 36.942C55.726 36.7753 56.2317 35.7134 56.3273 35.3985C56.5123 34.7903 56.2595 34.6422 57.2092 34.5249C61.5077 33.9908 62.294 40.0753 58.1497 40.6618V40.6649Z" fill="#3B6DA7"/>
<path d="M114.803 21.087L111.985 28.8693L109.158 21.087C108.948 20.5097 108.402 20.1208 107.785 20.1208C106.984 20.1208 106.324 20.7721 106.324 21.584V32.2125C106.324 32.7681 106.774 33.225 107.335 33.225C107.896 33.225 108.347 32.7743 108.347 32.2125V24.2203L110.81 30.7709C110.995 31.2524 111.461 31.5735 111.976 31.5735C112.491 31.5735 112.963 31.2524 113.141 30.7616L115.614 24.0412V32.2094C115.614 32.7651 116.065 33.2219 116.626 33.2219C117.187 33.2219 117.637 32.7712 117.637 32.2094V21.5809C117.637 20.7783 116.987 20.1177 116.176 20.1177C115.559 20.1177 115.01 20.5036 114.803 21.0839" fill="#243348"/>
<path d="M129.105 33.2252C128.648 33.2252 128.238 32.935 128.093 32.5028L127.483 30.7433L126.767 28.6781L124.961 23.4672L123.154 28.6781L122.438 30.7433L121.828 32.5028C121.677 32.9381 121.273 33.2252 120.816 33.2252C120.07 33.2252 119.546 32.4781 119.811 31.7712L123.906 20.8556C124.057 20.4142 124.476 20.124 124.951 20.124C125.426 20.124 125.842 20.4142 126.012 20.8556L130.107 31.7712C130.372 32.4781 129.848 33.2252 129.102 33.2252" fill="#243348"/>
<path d="M134.501 31.1601L139.833 22.3715C139.978 22.14 140.048 21.8745 140.048 21.5997C140.048 20.7786 139.382 20.1118 138.562 20.1118H133.101C132.531 20.1118 132.074 20.5687 132.074 21.1398C132.074 21.7109 132.531 22.1677 133.101 22.1677H137.471L132.121 30.9564C131.976 31.1879 131.905 31.4534 131.905 31.7281C131.905 32.5493 132.571 33.2161 133.391 33.2161H139.197C139.768 33.2161 140.224 32.7499 140.224 32.1881C140.224 31.6263 139.768 31.1601 139.197 31.1601H134.498H134.501Z" fill="#243348"/>
<path d="M151.069 33.2252C150.613 33.2252 150.203 32.935 150.058 32.5028L149.447 30.7433L148.732 28.6781L146.925 23.4672L145.118 28.6781L144.403 30.7433L143.792 32.5028C143.641 32.9381 143.237 33.2252 142.781 33.2252C142.034 33.2252 141.51 32.4781 141.775 31.7712L145.87 20.8556C146.021 20.4142 146.447 20.124 146.916 20.124C147.384 20.124 147.807 20.4142 147.976 20.8556L152.071 31.7712C152.337 32.4781 151.812 33.2252 151.066 33.2252" fill="#243348"/>
<path d="M159.123 20.7169L156.715 25.903L154.307 20.7169C154.137 20.3557 153.776 20.1211 153.375 20.1211C152.614 20.1211 152.114 20.9237 152.453 21.609L155.642 28.033V32.148C155.642 32.7438 156.123 33.2161 156.709 33.2161C157.295 33.2161 157.776 32.7345 157.776 32.148V28.033L160.964 21.609C161.316 20.9268 160.819 20.1211 160.057 20.1211C159.657 20.1211 159.296 20.3526 159.126 20.7169" fill="#243348"/>
<path d="M170.653 33.2252C170.196 33.2252 169.786 32.935 169.641 32.5028L169.031 30.7433L168.315 28.6781L166.508 23.4672L164.701 28.6781L163.986 30.7433L163.375 32.5028C163.224 32.9381 162.82 33.2252 162.364 33.2252C161.618 33.2252 161.094 32.4781 161.359 31.7712L165.454 20.8556C165.605 20.4142 166.03 20.124 166.505 20.124C166.98 20.124 167.396 20.4142 167.566 20.8556L171.661 31.7712C171.92 32.4781 171.402 33.2252 170.65 33.2252" fill="#243348"/>
</svg>
