<svg width="43" height="31" viewBox="0 0 43 31" fill="none" xmlns="http://www.w3.org/2000/svg">
<g clip-path="url(#clip0_425_175)">
<path d="M7.29713 2.00394L10.4827 9.26476C10.7049 9.77031 11.1947 10.0994 11.739 10.1083L11.8132 10.1094C12.8451 10.1271 13.5406 9.04334 13.1098 8.09107L10.9615 3.33912L9.85489 0.839678C9.62887 0.329134 9.12824 0.000610352 8.57683 0.000610352C7.56191 0.000610352 6.88384 1.06276 7.29658 2.0045L7.29713 2.00394Z" fill="#1D5166"/>
<path d="M13.5172 14.1076C14.4133 14.1076 15.1397 13.3692 15.1397 12.4584C15.1397 11.5475 14.4133 10.8091 13.5172 10.8091C12.621 10.8091 11.8946 11.5475 11.8946 12.4584C11.8946 13.3692 12.621 14.1076 13.5172 14.1076Z" fill="#F15D2A"/>
<path d="M22.979 3.32077C23.8751 3.32077 24.6016 2.58237 24.6016 1.6715C24.6016 0.760624 23.8751 0.0222168 22.979 0.0222168C22.0829 0.0222168 21.3564 0.760624 21.3564 1.6715C21.3564 2.58237 22.0829 3.32077 22.979 3.32077Z" fill="#F15D2A"/>
<path d="M35.5128 9.58976C35.8557 8.74823 35.4625 7.78345 34.6346 7.43488C33.8067 7.0863 32.8576 7.48592 32.5147 8.32746C32.1717 9.169 32.5649 10.1338 33.3928 10.4823C34.2207 10.8309 35.1698 10.4313 35.5128 9.58976Z" fill="#F15D2A"/>
<path d="M23.8563 15.9029L22.8889 13.7492C22.8714 13.7109 22.8567 13.6709 22.843 13.631C22.8223 13.5705 22.7999 13.5111 22.7742 13.4512C22.1033 11.8907 21.3902 10.3474 20.6685 8.80855L17.0461 0.812986C16.8212 0.31798 16.3342 0 15.7975 0C14.8001 0 14.1351 1.04551 14.5441 1.97003L21.2106 17.0538C21.429 17.5477 21.9084 17.8696 22.4412 17.8785L22.5831 17.8812C23.5937 17.8984 24.2761 16.838 23.8563 15.904V15.9029Z" fill="#1D5166"/>
<path d="M0.122395 1.96837L6.78952 17.0533C7.00735 17.5472 7.48724 17.8679 8.01954 17.8768L8.1593 17.879C9.16986 17.8962 9.85284 16.8352 9.43136 15.9012L2.62448 0.814095C2.40009 0.31798 1.91256 0 1.37535 0C0.378445 0 -0.285974 1.0444 0.122395 1.96837Z" fill="#1D5166"/>
<path d="M31.1966 0.53215C30.7588 0.694192 29.4408 1.51384 28.6962 2.12482L28.6951 2.12205C28.261 2.49053 28.1251 3.10929 28.3631 3.63037C28.7442 4.46278 29.7864 4.70918 30.4989 4.14425C31.492 3.35568 32.7427 2.88565 34.1016 2.88565C36.0916 2.88565 37.849 3.89452 38.9081 5.43559C39.1522 5.77355 39.3651 6.14203 39.5392 6.53825C42.1778 12.556 34.7311 18.0327 30.0916 13.2475C29.6232 12.7641 29.2257 12.202 28.8709 11.5871L25.7513 4.60984C25.4909 4.02771 24.8882 3.68531 24.2641 3.76467C23.3213 3.88454 22.7513 4.88454 23.1171 5.77632L23.9819 7.88454C26.4949 13.4855 28.1562 18.2569 35.3245 17.7486C39.239 17.4706 42.5037 13.9667 42.9432 10.061C43.6732 3.57266 37.3232 -1.72756 31.1971 0.532705V0.531595L31.1966 0.53215Z" fill="#1D5166"/>
<path d="M15.1572 18C16.0533 18 16.7797 17.2616 16.7797 16.3507C16.7797 15.4398 16.0533 14.7014 15.1572 14.7014C14.2611 14.7014 13.5346 15.4398 13.5346 16.3507C13.5346 17.2616 14.2611 18 15.1572 18Z" fill="#F15D2A"/>
</g>
<path d="M5.24617 23.5887L3.50256 28.3394L1.75383 23.5887C1.62454 23.2353 1.28676 23 0.904001 23C0.407286 23 0 23.3973 0 23.8931V30.3815C0 30.7203 0.277997 31 0.626004 31C0.974011 31 1.25201 30.7254 1.25201 30.3815V25.5031L2.7769 29.5031C2.89137 29.7974 3.17908 29.9938 3.49745 29.9938C3.81581 29.9938 4.10863 29.7974 4.21799 29.498L5.74799 25.3951V30.3815C5.74799 30.7203 6.02599 31 6.374 31C6.722 31 7 30.7254 7 30.3815V23.8931C6.99949 23.4024 6.59731 23 6.09549 23C5.71273 23 5.37495 23.2358 5.24617 23.5892" fill="#1D5166"/>
<path d="M14.2797 31C13.9727 31 13.6979 30.8233 13.6009 30.5583L13.1913 29.4835L12.712 28.2224L11.5 25.0425L10.288 28.2224L9.80865 29.4835L9.39912 30.5583C9.29659 30.8233 9.02727 31 8.72025 31C8.21928 31 7.86904 30.5436 8.04693 30.1115L10.794 23.4468C10.8965 23.1767 11.1764 23 11.4945 23C11.8126 23 12.0924 23.1767 12.2055 23.4468L14.9531 30.1115C15.131 30.5431 14.7807 31 14.2797 31Z" fill="#1D5166"/>
<path d="M17.5589 29.7438L20.7637 24.3789C20.8506 24.2365 20.8938 24.0744 20.8938 23.9078C20.8938 23.4069 20.4931 23 20.0011 23H16.7189C16.3763 23 16.1013 23.2797 16.1013 23.6281C16.1013 23.9765 16.3763 24.2562 16.7189 24.2562H19.3443L16.1301 29.6211C16.0432 29.7635 16 29.9256 16 30.0922C16 30.5931 16.4007 31 16.8927 31H20.3824C20.725 31 21 30.7152 21 30.3719C21 30.0286 20.725 29.7438 20.3824 29.7438H17.5589Z" fill="#1D5166"/>
<path d="M27.3826 31C27.1195 31 26.8839 30.8233 26.8008 30.5583L26.4497 29.4835L26.0388 28.2224L25 25.0425L23.9612 28.2224L23.5503 29.4835L23.1992 30.5583C23.1114 30.8233 22.8805 31 22.6174 31C22.188 31 21.8877 30.5436 22.0402 30.1115L24.3948 23.4468C24.4827 23.1767 24.7273 23 24.9953 23C25.2632 23 25.5078 23.1767 25.6047 23.4468L27.9598 30.1115C28.1123 30.5431 27.812 31 27.3826 31Z" fill="#1D5166"/>
<path d="M33.6573 23.3632L32.0027 26.5309L30.3481 23.3632C30.2324 23.1425 29.9839 23 29.7081 23C29.1838 23 28.8422 23.4911 29.0737 23.9084L31.2634 27.8323V30.3468C31.2634 30.71 31.5942 31 31.997 31C32.3999 31 32.7307 30.7055 32.7307 30.3468V27.8323L34.9203 23.9084C35.1632 23.4911 34.821 23 34.2968 23C34.021 23 33.7725 23.1425 33.6567 23.3632" fill="#1D5166"/>
<path d="M41.3795 31C41.1165 31 40.8811 30.8233 40.798 30.5583L40.4471 29.4835L40.0365 28.2224L38.9983 25.0425L37.96 28.2224L37.5494 29.4835L37.1985 30.5583C37.1107 30.8233 36.88 31 36.617 31C36.1878 31 35.8878 30.5436 36.0402 30.1115L38.3939 23.4468C38.4818 23.1767 38.7262 23 38.9987 23C39.2712 23 39.511 23.1767 39.6078 23.4468L41.9615 30.1115C42.1092 30.5431 41.8139 31 41.38 31" fill="#1D5166"/>
<defs>
<clipPath id="clip0_425_175">
<rect width="43" height="18" fill="white"/>
</clipPath>
</defs>
</svg>
