<svg width="636" height="522" viewBox="0 0 636 522" fill="none" xmlns="http://www.w3.org/2000/svg">
<g id="No Results">
<g id="circle">
<path id="Stroke 1" d="M23.6228 239.873V245.242" stroke="#D2D8DF" stroke-width="2.921" stroke-linecap="round"/>
<g id="Group 8">
<path id="Stroke 2" d="M11.5627 242.781L15.9502 247.298" stroke="#D2D8DF" stroke-width="2.921" stroke-linecap="round"/>
<path id="Stroke 4" d="M6.4314 254.804H12.6352" stroke="#D2D8DF" stroke-width="2.921" stroke-linecap="round"/>
<path id="Stroke 6" d="M11.0596 267.041L15.4471 262.525" stroke="#D2D8DF" stroke-width="2.921" stroke-linecap="round"/>
</g>
<path id="Stroke 9" d="M23.6228 268.509V263.14" stroke="#D2D8DF" stroke-width="2.921" stroke-linecap="round"/>
<path id="Stroke 10" d="M32.5717 264.93L28.9922 261.35" stroke="#D2D8DF" stroke-width="2.921" stroke-linecap="round"/>
<path id="Stroke 11" d="M39.7309 255.981H34.3616" stroke="#D2D8DF" stroke-width="2.921" stroke-linecap="round"/>
<path id="Stroke 12" d="M36.1511 243.452L32.5715 247.032" stroke="#D2D8DF" stroke-width="2.921" stroke-linecap="round"/>
<path id="Stroke 13" d="M311.775 5.41333V8.99286" stroke="#D2D8DF" stroke-width="2.921" stroke-linecap="round"/>
<path id="Stroke 15" d="M301.037 16.1521H304.617" stroke="#D2D8DF" stroke-width="2.921" stroke-linecap="round"/>
<path id="Stroke 16" d="M311.775 26.8907V23.3112" stroke="#D2D8DF" stroke-width="2.921" stroke-linecap="round"/>
<path id="Stroke 17" d="M320.724 16.1521H317.145" stroke="#D2D8DF" stroke-width="2.921" stroke-linecap="round"/>
<path id="Stroke 18" d="M104.163 155.754V161.123" stroke="#D2D8DF" stroke-width="2.921" stroke-linecap="round"/>
<path id="Stroke 19" d="M88.0547 171.862H93.424" stroke="#D2D8DF" stroke-width="2.921" stroke-linecap="round"/>
<path id="Stroke 20" d="M104.163 186.18V180.811" stroke="#D2D8DF" stroke-width="2.921" stroke-linecap="round"/>
<path id="Stroke 21" d="M118.481 171.862H113.112" stroke="#D2D8DF" stroke-width="2.921" stroke-linecap="round"/>
<g id="Group 42">
<path id="Stroke 22" d="M489.417 350.908C493.694 350.908 497.163 354.378 497.163 358.657C497.163 362.936 493.694 366.405 489.417 366.405C485.14 366.405 481.671 362.936 481.671 358.657" stroke="#D2D8DF" stroke-width="2.921" stroke-linecap="round"/>
<path id="Fill 26" fill-rule="evenodd" clip-rule="evenodd" d="M524.866 280.614C529.465 279.18 536.515 273.555 538.147 267.503C539.627 272.852 545.831 279.18 551.429 279.658C545.128 281.889 539.103 288.517 538.147 293.724C537.497 288.417 529.164 281.388 524.866 280.614Z" fill="#EBECEE"/>
<path id="Fill 28" fill-rule="evenodd" clip-rule="evenodd" d="M52.7454 348.522C55.0458 347.804 58.5694 344.993 59.3853 341.967C60.1253 344.64 63.2264 347.804 66.0252 348.044C62.8754 349.159 59.8639 352.473 59.3853 355.077C59.0601 352.423 54.8938 348.908 52.7454 348.522Z" fill="#EBECEE"/>
<path id="Fill 30" fill-rule="evenodd" clip-rule="evenodd" d="M95.4355 99.5501C95.4355 102.869 92.7461 105.558 89.4292 105.558C86.1107 105.558 83.4229 102.869 83.4229 99.5501C83.4229 96.2323 86.1107 93.5422 89.4292 93.5422C92.7461 93.5422 95.4355 96.2323 95.4355 99.5501Z" fill="#D1D8DF"/>
<path id="Fill 32" fill-rule="evenodd" clip-rule="evenodd" d="M496.513 115.682C496.513 121.228 492.017 125.724 486.474 125.724C480.928 125.724 476.434 121.228 476.434 115.682C476.434 110.136 480.928 105.641 486.474 105.641C492.017 105.641 496.513 110.136 496.513 115.682Z" fill="#EBECEE"/>
<path id="Fill 34" fill-rule="evenodd" clip-rule="evenodd" d="M635.569 88.4758C635.569 92.8757 632.004 96.4413 627.607 96.4413C623.208 96.4413 619.644 92.8757 619.644 88.4758C619.644 84.0759 623.208 80.5104 627.607 80.5104C632.004 80.5104 635.569 84.0759 635.569 88.4758Z" fill="#EBECEE"/>
<path id="Stroke 36" fill-rule="evenodd" clip-rule="evenodd" d="M207.689 460.493C207.689 463.267 205.442 465.515 202.669 465.515C199.897 465.515 197.65 463.267 197.65 460.493C197.65 457.72 199.897 455.472 202.669 455.472C205.442 455.472 207.689 457.72 207.689 460.493Z" stroke="#D2D8DF" stroke-width="2.921" stroke-linecap="round"/>
<path id="Stroke 38" fill-rule="evenodd" clip-rule="evenodd" d="M204.702 60.9529C204.702 64.2722 202.012 66.9608 198.696 66.9608C195.379 66.9608 192.689 64.2722 192.689 60.9529C192.689 57.6351 195.379 54.945 198.696 54.945C202.012 54.945 204.702 57.6351 204.702 60.9529Z" stroke="#D2D8DF" stroke-width="2.921" stroke-linecap="round"/>
<path id="Stroke 40" fill-rule="evenodd" clip-rule="evenodd" d="M357.911 516.099C354.073 517.559 349.778 515.631 348.317 511.793C346.857 507.954 348.784 503.656 352.623 502.197C356.46 500.736 360.756 502.663 362.216 506.503C363.677 510.342 361.749 514.638 357.911 516.099Z" stroke="#D2D8DF" stroke-width="2.921" stroke-linecap="round"/>
</g>
</g>
<g id="search">
<g id="documents">
<path id="Fill 1" fill-rule="evenodd" clip-rule="evenodd" d="M345.164 362.122H198.394C188.064 362.122 179.608 353.641 179.608 343.276V133.976C179.608 123.61 188.064 115.134 198.394 115.134H345.164C355.498 115.134 363.954 123.61 363.954 133.976V343.276C363.954 353.641 355.498 362.122 345.164 362.122Z" fill="#E0E2EE"/>
<path id="Fill 3" fill-rule="evenodd" clip-rule="evenodd" d="M332.636 371.07H185.866C175.536 371.07 167.08 362.59 167.08 352.224V142.924C167.08 132.559 175.536 124.083 185.866 124.083H332.636C342.97 124.083 351.426 132.559 351.426 142.924V352.224C351.426 362.59 342.97 371.07 332.636 371.07Z" fill="#E8EBF2"/>
<path id="Fill 5" fill-rule="evenodd" clip-rule="evenodd" d="M320.449 378.135H173.376C163.025 378.135 154.551 369.689 154.551 359.367V150.934C154.551 140.611 163.025 132.17 173.376 132.17H320.449C330.805 132.17 339.278 140.611 339.278 150.934V359.367C339.278 369.689 330.805 378.135 320.449 378.135Z" fill="#D8DBEA"/>
<path id="Fill 8" fill-rule="evenodd" clip-rule="evenodd" d="M320.449 378.135H173.376C163.025 378.135 154.551 369.689 154.551 359.367V150.934C154.551 140.611 163.025 132.17 173.376 132.17H320.449C330.805 132.17 339.278 140.611 339.278 150.934V359.367C339.278 369.689 330.805 378.135 320.449 378.135Z" fill="#F1F2F7"/>
<path id="Fill 11" fill-rule="evenodd" clip-rule="evenodd" d="M299.25 195.673H190.619C187.517 195.673 184.978 193.257 184.978 190.306C184.978 187.351 187.517 184.935 190.619 184.935H299.25C302.352 184.935 304.892 187.351 304.892 190.306C304.892 193.257 302.352 195.673 299.25 195.673Z" fill="#E0E2EE"/>
<path id="Fill 13" fill-rule="evenodd" clip-rule="evenodd" d="M299.25 227.889H190.619C187.517 227.889 184.978 225.473 184.978 222.522C184.978 219.566 187.517 217.15 190.619 217.15H299.25C302.352 217.15 304.892 219.566 304.892 222.522C304.892 225.473 302.352 227.889 299.25 227.889Z" fill="#E0E2EE"/>
<path id="Fill 15" fill-rule="evenodd" clip-rule="evenodd" d="M299.25 260.105H190.619C187.517 260.105 184.978 257.689 184.978 254.738C184.978 251.786 187.517 249.366 190.619 249.366H299.25C302.352 249.366 304.892 251.786 304.892 254.738C304.892 257.689 302.352 260.105 299.25 260.105Z" fill="#E0E2EE"/>
<path id="Fill 17" fill-rule="evenodd" clip-rule="evenodd" d="M299.25 292.321H190.619C187.517 292.321 184.978 289.905 184.978 286.953C184.978 283.998 187.517 281.582 190.619 281.582H299.25C302.352 281.582 304.892 283.998 304.892 286.953C304.892 289.905 302.352 292.321 299.25 292.321Z" fill="#E0E2EE"/>
<path id="Fill 19" fill-rule="evenodd" clip-rule="evenodd" d="M247.323 324.537H190.643C187.528 324.537 184.978 322.121 184.978 319.169C184.978 316.214 187.528 313.798 190.643 313.798H247.323C250.438 313.798 252.989 316.214 252.989 319.169C252.989 322.121 250.438 324.537 247.323 324.537Z" fill="#E0E2EE"/>
</g>
<g id="search_2">
<path id="Fill 21" fill-rule="evenodd" clip-rule="evenodd" d="M361.725 282.901C340.004 304.619 306.376 307.069 281.962 290.301C278.842 288.12 275.872 285.669 273.103 282.901C271.677 281.48 270.333 280.013 269.067 278.47C266.535 275.386 264.316 272.098 262.499 268.701C259.297 262.963 257.12 256.874 255.931 250.581C252.096 230.844 257.83 209.599 273.103 194.334C288.411 179.023 309.66 173.326 329.4 177.124C335.69 178.349 341.785 180.526 347.524 183.691C350.926 185.549 354.169 187.767 357.257 190.299C358.797 191.561 360.263 192.909 361.684 194.334C364.458 197.103 366.945 200.067 369.086 203.191C385.861 227.597 383.406 261.223 361.725 282.901Z" fill="white" fill-opacity="0.1"/>
<path id="Fill 23" fill-rule="evenodd" clip-rule="evenodd" d="M355.647 278.623C333.049 301.226 296.426 301.222 273.823 278.623C251.25 256.05 251.25 219.423 273.852 196.824C296.426 174.25 333.049 174.25 355.622 196.824C378.221 219.423 378.221 256.05 355.647 278.623ZM367.245 185.213C338.238 156.206 291.232 156.206 262.225 185.213C233.222 214.216 233.197 261.251 262.2 290.259C288.6 316.65 329.979 319.03 359.083 297.361C361.926 295.242 364.663 292.866 367.275 290.259C369.882 287.647 372.258 284.91 374.373 282.067C396.042 252.959 393.641 211.609 367.245 185.213Z" fill="#E0E2EE"/>
<path id="Fill 25" fill-rule="evenodd" clip-rule="evenodd" d="M481.402 399.602L480.184 400.82C472.128 408.881 458.935 408.881 450.874 400.82L376.482 326.429L407.011 295.9L481.402 370.291C489.463 378.352 489.463 391.541 481.402 399.602Z" fill="url(#paint0_linear_426_9047)"/>
<path id="Fill 27" fill-rule="evenodd" clip-rule="evenodd" d="M375.976 279.792L397.959 301.775L382.353 317.377L360.374 295.394C363.275 293.232 366.064 290.807 368.733 288.147C371.394 285.486 373.818 282.693 375.976 279.792Z" fill="#E0E2EE"/>
<path id="Fill 29" fill-rule="evenodd" clip-rule="evenodd" d="M480.289 369.376L449.955 399.706L444.494 394.241L474.824 363.911L480.289 369.376Z" fill="#90B5EA"/>
<path id="Fill 31" fill-rule="evenodd" clip-rule="evenodd" d="M408.698 296.95L377.533 328.116L372.903 323.486L404.068 292.321L408.698 296.95Z" fill="#90B5EA"/>
<path id="Fill 33" fill-rule="evenodd" clip-rule="evenodd" d="M340.687 189.049L264.258 265.474C261.38 260.315 259.423 254.842 258.358 249.183L324.396 183.145C330.05 184.25 335.529 186.203 340.687 189.049Z" fill="white" fill-opacity="0.5"/>
<path id="Fill 35" fill-rule="evenodd" clip-rule="evenodd" d="M365.744 207.214L283.115 285.161C280.156 283.213 277.34 281.021 274.714 278.543C273.361 277.268 272.083 275.96 270.886 274.578L354.521 195.673C355.986 196.806 357.376 198.012 358.724 199.288C361.351 201.766 363.714 204.419 365.744 207.214Z" fill="white" fill-opacity="0.5"/>
</g>
</g>
</g>
<defs>
<linearGradient id="paint0_linear_426_9047" x1="431.965" y1="240.417" x2="321" y2="351.383" gradientUnits="userSpaceOnUse">
<stop stop-color="#2A66BC"/>
<stop offset="1" stop-color="#3B6DA7"/>
</linearGradient>
</defs>
</svg>
