<svg width="422" height="363" viewBox="0 0 422 363" fill="none" xmlns="http://www.w3.org/2000/svg">
<path d="M658.843 -34.3303C654.585 -50.9486 629.343 -102.354 609.561 -132.022L609.683 -132.065C597.697 -149.397 575.196 -156.902 554.795 -150.379C522.205 -139.937 508.833 -102.977 527.029 -74.6739C552.417 -35.2352 564.893 12.2638 559.412 61.769C551.384 134.278 506.694 194.144 444.972 226.375C431.385 233.879 416.79 240.109 401.306 244.797C166.336 316.089 -7.78372 22.1732 189.303 -127.107C209.208 -142.183 231.764 -154.331 256.128 -164.721L528.805 -249.572C551.566 -256.655 566.745 -277.212 566.292 -300.264C565.612 -335.097 530.633 -360.018 495.92 -350.349L413.823 -327.541C194.9 -259.09 10.3207 -218.252 0.350458 45.0279C-5.07775 188.786 112.366 322.21 256.167 354.334C495.158 407.705 718.355 198.201 658.785 -34.3367L658.843 -34.3303Z" fill="white" fill-opacity="0.2"/>
</svg>
