<svg width="101" height="92" viewBox="0 0 101 92" fill="none" xmlns="http://www.w3.org/2000/svg">
<path d="M92.5833 6.56665H8.41667C3.77058 6.57166 0.0055653 9.9639 0 14.15V68.75C0.0055653 72.9361 3.77058 76.3283 8.41667 76.3333H58.9167V83.9167C58.9168 84.53 59.3269 85.0829 59.9559 85.3176C60.5848 85.5523 61.3087 85.4226 61.7901 84.9889L67.3333 79.9946L72.8765 84.9889C73.358 85.4226 74.0819 85.5523 74.7108 85.3176C75.3397 85.0829 75.7499 84.53 75.75 83.9167V76.3333H92.5833C97.2294 76.3283 100.994 72.9361 101 68.75V14.15C100.994 9.9639 97.2294 6.57166 92.5833 6.56665ZM54.3885 36.2402C54.1283 36.1321 53.9413 35.9183 53.8853 35.6651C53.8294 35.4119 53.9113 35.1498 54.1057 34.9602C55.6119 33.4852 55.6119 31.2163 54.1057 29.7413C53.9107 29.5514 53.8286 29.2888 53.8849 29.0351C53.9412 28.7814 54.1291 28.5674 54.3902 28.4597C56.4066 27.6143 57.3691 25.5188 56.6054 23.6367C56.5061 23.3944 56.5415 23.1239 56.7006 22.909C56.8598 22.6942 57.1236 22.561 57.4101 22.5508C59.6331 22.4666 61.4139 20.8621 61.5073 18.8592C61.5185 18.6007 61.6665 18.3627 61.9054 18.2192C62.1443 18.0757 62.4451 18.0441 62.7143 18.1343C64.8035 18.8182 67.1265 17.9514 68.0673 16.1368C68.1863 15.9019 68.4234 15.7329 68.7045 15.6824C68.9855 15.6319 69.2764 15.7062 69.4863 15.882C71.1239 17.2393 73.6428 17.2393 75.2803 15.882C75.4908 15.7063 75.7821 15.6323 76.0634 15.683C76.3448 15.7338 76.5819 15.9032 76.7011 16.1383C77.64 17.9538 79.964 18.8206 82.0524 18.1343C82.3215 18.0441 82.6223 18.0757 82.8612 18.2192C83.1002 18.3627 83.2482 18.6007 83.2593 18.8592C83.3538 20.8649 85.1388 22.4705 87.365 22.5523C87.6514 22.562 87.9152 22.6949 88.0745 22.9095C88.2337 23.1242 88.2691 23.3946 88.1696 23.6367C87.4053 25.5192 88.3689 27.6154 90.3866 28.4597C90.6468 28.5679 90.8338 28.7817 90.8898 29.0349C90.9457 29.2881 90.8638 29.5501 90.6694 29.7398C89.1632 31.2147 89.1632 33.4837 90.6694 34.9587C90.8644 35.1485 90.9465 35.4112 90.8902 35.6649C90.8339 35.9186 90.646 36.1325 90.3849 36.2402C88.3685 37.0857 87.406 39.1812 88.1696 41.0632C88.269 41.3055 88.2336 41.5761 88.0744 41.7909C87.9152 42.0058 87.6515 42.139 87.365 42.1492C85.1356 42.2298 83.3488 43.8397 83.2593 45.8483C83.2482 46.1068 83.1002 46.3449 82.8612 46.4884C82.6223 46.6319 82.3215 46.6634 82.0524 46.5733C79.9632 45.8885 77.6395 46.7556 76.6994 48.5707C76.5847 48.8079 76.347 48.9783 76.0648 49.0257C75.783 49.0788 75.4902 49.0047 75.2803 48.8271C73.6424 47.4705 71.1242 47.4705 69.4863 48.8271C69.2763 49.0044 68.9837 49.0786 68.7019 49.0257C68.4193 48.9783 68.1811 48.8079 68.0656 48.5707C67.1273 46.7547 64.8026 45.8877 62.7143 46.5748C62.4451 46.665 62.1443 46.6334 61.9054 46.4899C61.6665 46.3464 61.5185 46.1083 61.5073 45.8498C61.418 43.8406 59.6316 42.2298 57.4017 42.1477C57.1153 42.1379 56.8515 42.0051 56.6922 41.7905C56.5329 41.5758 56.4975 41.3054 56.597 41.0632C57.3625 39.1828 56.403 37.0873 54.3885 36.2402ZM72.8782 64.6429L72.3833 65.0888V50.8321C72.6086 50.8315 72.8258 50.908 72.991 51.0459C73.7711 51.7048 74.8003 52.0713 75.8695 52.0712C76.1555 52.0707 76.4407 52.0453 76.7213 51.9954C78.0608 51.7598 79.1903 50.9535 79.7513 49.8326C79.9485 49.4502 80.4383 49.2681 80.8774 49.414C81.3897 49.5775 81.9319 49.6511 82.4749 49.6309V65.0888L78.615 61.611C77.9577 61.019 76.8921 61.019 76.2348 61.611L72.8782 64.6429ZM72.3833 80.2554L68.5235 76.7777C67.8661 76.1856 66.8006 76.1856 66.1432 76.7777L62.2833 80.2554V49.6279C62.8263 49.6482 63.3686 49.5746 63.8808 49.411C64.319 49.2643 64.8087 49.4459 65.0053 49.8281C65.5679 50.9519 66.7018 51.7591 68.0454 51.9923C68.3651 52.0493 68.6908 52.0743 69.0167 52.0667V68.75C69.0168 69.3633 69.4269 69.9162 70.0559 70.1509C70.6848 70.3856 71.4087 70.2559 71.8901 69.8223L72.3833 69.3779V80.2554ZM97.6333 68.75C97.6333 71.2629 95.3724 73.3 92.5833 73.3H75.75V66.3446L77.4333 64.8279L82.9765 69.8223C83.458 70.2559 84.1819 70.3856 84.8108 70.1509C85.4397 69.9162 85.8499 69.3633 85.85 68.75V47.9823C86.3198 47.3879 86.5882 46.6835 86.6227 45.9545C86.6432 45.5338 87.0175 45.1972 87.4845 45.1795C88.8492 45.1321 90.106 44.4983 90.8645 43.4751C91.6231 42.4519 91.7915 41.1631 91.3175 40.0092C91.1568 39.6144 91.3588 39.1746 91.7821 38.9975C93.0236 38.4836 93.9165 37.4645 94.1831 36.2571C94.4496 35.0497 94.0575 33.8004 93.1287 32.8975C92.8123 32.5876 92.8123 32.1109 93.1287 31.801C94.0576 30.8984 94.4497 29.6492 94.1831 28.442C93.9165 27.2348 93.0236 26.216 91.7821 25.7024C91.3575 25.5265 91.1544 25.086 91.3158 24.6908C91.7898 23.5368 91.6214 22.2481 90.8629 21.2249C90.1043 20.2017 88.8475 19.5679 87.4828 19.5205C87.0159 19.5028 86.6415 19.1662 86.621 18.7455C86.5699 17.5155 85.8674 16.3821 84.7318 15.6979C83.5962 15.0137 82.1653 14.8616 80.8842 15.289C80.4459 15.4381 79.9544 15.2558 79.7597 14.8719C79.1893 13.7533 78.0582 12.9488 76.7182 12.7087C75.3781 12.4685 73.9914 12.8217 72.9893 13.6586C72.6459 13.9434 72.1174 13.9434 71.774 13.6586C70.7722 12.8217 69.3857 12.4684 68.0459 12.7086C66.706 12.9488 65.5753 13.7533 65.0053 14.8719C64.8099 15.256 64.3183 15.4387 63.8791 15.2905C62.598 14.8632 61.1671 15.0152 60.0315 15.6994C58.8959 16.3837 58.1934 17.517 58.1423 18.747C58.1218 19.1677 57.7474 19.5043 57.2805 19.522C55.9158 19.5694 54.659 20.2032 53.9004 21.2264C53.1419 22.2496 52.9735 23.5384 53.4475 24.6923C53.6082 25.0871 53.4062 25.5269 52.9829 25.704C51.7413 26.2179 50.8485 27.2369 50.5819 28.4444C50.3154 29.6518 50.7074 30.9011 51.6362 31.804C51.9526 32.1139 51.9526 32.5906 51.6362 32.9005C50.7074 33.8031 50.3153 35.0523 50.5819 36.2595C50.8485 37.4667 51.7414 38.4855 52.9829 38.9991C53.4075 39.175 53.6105 39.6155 53.4492 40.0107C52.9752 41.1646 53.1436 42.4534 53.9021 43.4766C54.6607 44.4998 55.9175 45.1336 57.2821 45.181C57.7491 45.1987 58.1235 45.5353 58.144 45.956C58.1788 46.6845 58.4471 47.3883 58.9167 47.9823V73.3H8.41667C5.62763 73.3 3.36667 71.2629 3.36667 68.75V14.15C3.36667 11.6371 5.62763 9.59998 8.41667 9.59998H92.5833C95.3724 9.59998 97.6333 11.6371 97.6333 14.15V68.75Z" fill="#EBEBEB"/>
<path d="M18.5167 61.1667C15.7276 61.1667 13.4667 59.1296 13.4667 56.6167V26.2833C13.4667 23.7705 15.7276 21.7333 18.5167 21.7333H48.8167C49.7464 21.7333 50.5 21.0543 50.5 20.2167C50.5 19.379 49.7464 18.7 48.8167 18.7H18.5167C13.8706 18.705 10.1056 22.0973 10.1 26.2833V56.6167C10.1056 60.8028 13.8706 64.195 18.5167 64.2H50.5C51.4297 64.2 52.1833 63.521 52.1833 62.6833C52.1833 61.8457 51.4297 61.1667 50.5 61.1667H18.5167Z" fill="#EBEBEB"/>
<path d="M20.2 42.9667H43.7667C44.6963 42.9667 45.45 42.2876 45.45 41.45C45.45 40.6124 44.6963 39.9333 43.7667 39.9333H20.2C19.2703 39.9333 18.5167 40.6124 18.5167 41.45C18.5167 42.2876 19.2703 42.9667 20.2 42.9667Z" fill="#EBEBEB"/>
<path d="M20.2 36.9H43.7667C44.6963 36.9 45.45 36.2209 45.45 35.3833C45.45 34.5457 44.6963 33.8666 43.7667 33.8666H20.2C19.2703 33.8666 18.5167 34.5457 18.5167 35.3833C18.5167 36.2209 19.2703 36.9 20.2 36.9Z" fill="#EBEBEB"/>
<path d="M20.2 30.8333H43.7667C44.6963 30.8333 45.45 30.1543 45.45 29.3167C45.45 28.479 44.6963 27.8 43.7667 27.8H20.2C19.2703 27.8 18.5167 28.479 18.5167 29.3167C18.5167 30.1543 19.2703 30.8333 20.2 30.8333Z" fill="#EBEBEB"/>
<path d="M18.6564 57.2233C18.9242 57.7763 19.5304 58.1336 20.2 58.1333C20.4318 58.1343 20.6611 58.0914 20.8733 58.0074C22.4318 57.4858 23.864 56.6984 25.0918 55.6885C25.5475 55.2787 25.9461 54.8203 26.2785 54.3235C26.9213 54.9746 27.6768 55.5277 28.5157 55.9615C29.6856 56.6507 31.1417 56.8184 32.4665 56.4165C32.9743 56.2388 33.4336 55.9647 33.8131 55.6126C34.5749 56.0415 35.414 56.3469 36.2927 56.515L37.5653 56.7865C40.1628 57.472 42.8618 57.7943 45.5678 57.742C46.1677 57.703 46.699 57.3786 46.9614 56.891C47.2239 56.4034 47.1777 55.8267 46.8402 55.3781C46.5028 54.9296 45.9253 54.6773 45.3254 54.7163C42.9641 54.7441 40.6118 54.4474 38.3497 53.8366L37.0485 53.5591C35.4779 53.233 35.0739 52.6627 34.9073 52.2608C34.6139 51.5551 33.7901 51.1505 32.9728 51.3108C32.1556 51.4711 31.593 52.1476 31.6517 52.8993C31.6705 53.1712 31.5276 53.4317 31.2763 53.5833C30.883 53.6284 30.4855 53.5361 30.1653 53.3255C28.804 52.5619 27.7803 51.395 27.27 50.0252C26.9804 49.3199 26.1609 48.9124 25.3441 49.0675C24.5274 49.2225 23.9602 49.8934 24.0111 50.644C24.0394 51.729 23.5677 52.7761 22.7082 53.5363C21.7735 54.2728 20.6945 54.8458 19.5267 55.2259C19.1171 55.3866 18.7953 55.6875 18.6321 56.0621C18.4689 56.4367 18.4776 56.8545 18.6564 57.2233Z" fill="#EBEBEB"/>
<path d="M72.3834 44.4833C79.8208 44.4833 85.85 39.0511 85.85 32.35C85.85 25.649 79.8208 20.2167 72.3834 20.2167C64.9459 20.2167 58.9167 25.649 58.9167 32.35C58.925 39.0479 64.9494 44.4758 72.3834 44.4833ZM72.3834 23.25C77.9614 23.25 82.4834 27.3242 82.4834 32.35C82.4834 37.3758 77.9614 41.45 72.3834 41.45C66.8053 41.45 62.2834 37.3758 62.2834 32.35C62.2889 27.3263 66.8076 23.255 72.3834 23.25Z" fill="#EBEBEB"/>
</svg>
