<svg width="87" height="78" viewBox="0 0 87 78" fill="none" xmlns="http://www.w3.org/2000/svg">
<g clip-path="url(#clip0_318_622)">
<path d="M26.7902 15.6326C26.038 15.6326 25.428 16.1794 25.428 16.8539C25.428 18.3355 24.0835 19.5408 22.431 19.5408C20.7786 19.5408 19.4341 18.3355 19.4341 16.8539C19.4341 15.3724 20.7786 14.167 22.431 14.167C23.1833 14.167 23.7933 13.6203 23.7933 12.9457C23.7933 12.2711 23.1835 11.7244 22.431 11.7244C19.2763 11.7244 16.7098 14.0255 16.7098 16.8538C16.7098 19.682 19.2764 21.9832 22.431 21.9832C25.5856 21.9832 28.1523 19.682 28.1523 16.8538C28.1525 16.1794 27.5425 15.6326 26.7902 15.6326Z" fill="#EBEBEB"/>
<path d="M26.7902 29.9624C26.038 29.9624 25.428 30.5091 25.428 31.1837C25.428 32.6652 24.0835 33.8706 22.431 33.8706C20.7786 33.8706 19.4341 32.6652 19.4341 31.1837C19.4341 29.7022 20.7786 28.4968 22.431 28.4968C23.1833 28.4968 23.7933 27.9501 23.7933 27.2755C23.7933 26.6009 23.1835 26.0541 22.431 26.0541C19.2763 26.0541 16.7098 28.3553 16.7098 31.1836C16.7098 34.0118 19.2764 36.313 22.431 36.313C25.5856 36.313 28.1523 34.0118 28.1523 31.1836C28.1525 30.5093 27.5425 29.9624 26.7902 29.9624Z" fill="#EBEBEB"/>
<path d="M42.7734 32.5679H32.6022C31.85 32.5679 31.24 33.1146 31.24 33.7892C31.24 34.4638 31.8498 35.0106 32.6022 35.0106H42.7734C43.5257 35.0106 44.1357 34.4638 44.1357 33.7892C44.1357 33.1146 43.5258 32.5679 42.7734 32.5679Z" fill="#EBEBEB"/>
<path d="M42.7734 27.357H32.6022C31.85 27.357 31.24 27.9038 31.24 28.5783C31.24 29.2529 31.8498 29.7997 32.6022 29.7997H42.7734C43.5257 29.7997 44.1357 29.2529 44.1357 28.5783C44.1357 27.9038 43.5258 27.357 42.7734 27.357Z" fill="#EBEBEB"/>
<path d="M39.8674 46.8976H32.6022C31.85 46.8976 31.24 47.4444 31.24 48.119C31.24 48.7936 31.8498 49.3403 32.6022 49.3403H39.8674C40.6197 49.3403 41.2297 48.7936 41.2297 48.119C41.2297 47.4444 40.6197 46.8976 39.8674 46.8976Z" fill="#EBEBEB"/>
<path d="M42.7734 41.6869H32.6022C31.85 41.6869 31.24 42.2337 31.24 42.9082C31.24 43.5828 31.8498 44.1296 32.6022 44.1296H42.7734C43.5257 44.1296 44.1357 43.5828 44.1357 42.9082C44.1357 42.2337 43.5258 41.6869 42.7734 41.6869Z" fill="#EBEBEB"/>
<path d="M55.8508 18.238H32.6022C31.85 18.238 31.24 18.7847 31.24 19.4593C31.24 20.1339 31.8498 20.6807 32.6022 20.6807H55.8506C56.6028 20.6807 57.2129 20.1339 57.2129 19.4593C57.2129 18.7847 56.603 18.238 55.8508 18.238Z" fill="#EBEBEB"/>
<path d="M50.0386 13.027H32.6022C31.85 13.027 31.24 13.5738 31.24 14.2484C31.24 14.923 31.8498 15.4697 32.6022 15.4697H50.0386C50.7908 15.4697 51.4009 14.923 51.4009 14.2484C51.4009 13.5738 50.791 13.027 50.0386 13.027Z" fill="#EBEBEB"/>
<path d="M26.7902 44.2923C26.038 44.2923 25.428 44.839 25.428 45.5136C25.428 46.9951 24.0835 48.2005 22.431 48.2005C20.7786 48.2005 19.4341 46.9951 19.4341 45.5136C19.4341 44.0321 20.7786 42.8267 22.431 42.8267C23.1833 42.8267 23.7933 42.28 23.7933 41.6054C23.7933 40.9308 23.1835 40.384 22.431 40.384C19.2763 40.384 16.7098 42.6852 16.7098 45.5134C16.7098 48.3417 19.2764 50.6429 22.431 50.6429C25.5856 50.6429 28.1523 48.3417 28.1523 45.5134C28.1525 44.839 27.5425 44.2923 26.7902 44.2923Z" fill="#EBEBEB"/>
<path d="M61.6628 0H12.2599C9.90645 0 7.9916 1.71661 7.9916 3.82672V58.5407C7.9916 60.6508 9.90628 62.3674 12.2599 62.3674H36.9614C37.7137 62.3674 38.3237 61.8206 38.3237 61.1461C38.3237 60.4716 37.7138 59.9247 36.9614 59.9247H12.2599C11.4086 59.9247 10.716 59.3038 10.716 58.5405V3.82672C10.716 3.06348 11.4086 2.44253 12.2599 2.44253H61.6628C62.5141 2.44253 63.2067 3.06348 63.2067 3.82672V44.2111C63.2067 44.8855 63.8165 45.4324 64.569 45.4324C65.3212 45.4324 65.9312 44.8856 65.9312 44.2111V3.82672C65.9311 1.71661 64.0164 0 61.6628 0Z" fill="#EBEBEB"/>
<path d="M74.524 49.526C73.2579 49.4129 71.9925 49.7346 70.991 50.4163C70.1932 49.2162 68.8328 48.3647 67.2588 48.2234C65.9924 48.1103 64.7271 48.4321 63.7258 49.1136C62.928 47.9135 61.5676 47.062 59.9936 46.9207C59.0268 46.8341 58.0613 47.0011 57.2129 47.3882V31.8351C57.2129 30.5723 56.6137 29.3618 55.5685 28.514C54.5244 27.667 53.1172 27.2535 51.7077 27.38C49.1931 27.6058 47.2233 29.6443 47.2233 32.021V47.6134L43.2189 51.2035C41.091 53.1113 40.2321 55.8181 40.9214 58.4445L43.9615 70.0283C45.1933 74.7222 49.8099 78.0003 55.1882 78.0003H67.4748C73.8343 78.0003 79.0082 73.3617 79.0082 67.66V54.1673C79.0084 51.7903 77.0387 49.7518 74.524 49.526ZM76.2839 67.6597C76.2839 72.0144 72.3322 75.5573 67.475 75.5573H55.1884C51.0805 75.5573 47.5543 73.0536 46.6135 69.4684L43.5734 57.8847C43.1017 56.0878 43.6895 54.2356 45.1453 52.9303L47.2233 51.0673V55.2839C47.2233 55.9583 47.8332 56.5052 48.5856 56.5052C49.338 56.5052 49.9479 55.9585 49.9479 55.2839V32.0208C49.9479 30.8836 50.8401 29.9126 51.9794 29.8105C52.6338 29.7515 53.2596 29.9346 53.7408 30.3252C54.2161 30.7108 54.4887 31.2612 54.4887 31.8353V53.3301C54.4887 54.0045 55.0985 54.5514 55.8509 54.5514C56.6033 54.5514 57.2132 54.0046 57.2132 53.3301V51.376C57.2132 50.8019 57.4856 50.2515 57.961 49.8659C58.4426 49.4753 59.0681 49.292 59.7224 49.3512C60.8616 49.4534 61.754 50.4244 61.754 51.5617V54.6325C61.754 55.3069 62.3639 55.8538 63.1163 55.8538C63.8685 55.8538 64.4785 55.307 64.4785 54.6325V52.6783C64.4785 52.1043 64.7509 51.5539 65.2264 51.1683C65.7079 50.7777 66.3336 50.5946 66.9878 50.6535C68.1269 50.7558 69.0194 51.7268 69.0194 52.864V55.935C69.0194 56.6094 69.6292 57.1563 70.3816 57.1563C71.1339 57.1563 71.7439 56.6096 71.7439 55.935V53.9809C71.7439 53.4068 72.0163 52.8564 72.4917 52.4708C72.9733 52.0804 73.5984 51.897 74.2531 51.9562C75.3923 52.0583 76.2847 53.0293 76.2847 54.1666V67.6597H76.2839Z" fill="#EBEBEB"/>
</g>
<defs>
<clipPath id="clip0_318_622">
<rect width="87" height="78" fill="white"/>
</clipPath>
</defs>
</svg>
