<svg width="101" height="90" viewBox="0 0 101 90" fill="none" xmlns="http://www.w3.org/2000/svg">
<path d="M12.2956 27.3428H46.9827C47.8345 27.3428 48.6513 27.0413 49.2536 26.5046C49.8559 25.9679 50.1942 25.24 50.1942 24.4811V20.1164L57.1794 17.6854L50.1942 14.6443V10.8879C50.1942 10.1289 49.8559 9.40104 49.2536 8.86436C48.6513 8.32769 47.8345 8.02618 46.9827 8.02618H12.2956C11.4438 8.02618 10.627 8.32769 10.0247 8.86436C9.42243 9.40104 9.08408 10.1289 9.08408 10.8879V24.4811C9.08408 25.24 9.42243 25.9679 10.0247 26.5046C10.627 27.0413 11.4438 27.3428 12.2956 27.3428ZM40.1929 15.2526C40.7328 15.2526 41.2607 15.3952 41.7097 15.6626C42.1586 15.9299 42.5086 16.3098 42.7152 16.7544C42.9218 17.1989 42.9759 17.6881 42.8706 18.16C42.7652 18.6319 42.5052 19.0654 42.1234 19.4056C41.7416 19.7459 41.2551 19.9776 40.7255 20.0714C40.1959 20.1653 39.6469 20.1171 39.1481 19.933C38.6492 19.7489 38.2228 19.437 37.9228 19.037C37.6228 18.6369 37.4627 18.1665 37.4627 17.6854C37.4627 17.0401 37.7503 16.4213 38.2624 15.9651C38.7744 15.5089 39.4688 15.2526 40.1929 15.2526ZM29.6392 15.2526C30.1791 15.2526 30.707 15.3952 31.1559 15.6626C31.6049 15.9299 31.9549 16.3098 32.1615 16.7544C32.3681 17.1989 32.4222 17.6881 32.3169 18.16C32.2115 18.6319 31.9515 19.0654 31.5697 19.4056C31.1878 19.7459 30.7014 19.9776 30.1718 20.0714C29.6422 20.1653 29.0932 20.1171 28.5944 19.933C28.0955 19.7489 27.6691 19.437 27.3691 19.037C27.0691 18.6369 26.909 18.1665 26.909 17.6854C26.909 17.0401 27.1966 16.4213 27.7086 15.9651C28.2206 15.5089 28.9151 15.2526 29.6392 15.2526ZM19.0854 15.2526C19.6254 15.2526 20.1533 15.3952 20.6022 15.6626C21.0512 15.9299 21.4011 16.3098 21.6078 16.7544C21.8144 17.1989 21.8685 17.6881 21.7631 18.16C21.6578 18.6319 21.3978 19.0654 21.016 19.4056C20.6341 19.7459 20.1477 19.9776 19.6181 20.0714C19.0885 20.1653 18.5395 20.1171 18.0407 19.933C17.5418 19.7489 17.1154 19.437 16.8154 19.037C16.5154 18.6369 16.3553 18.1665 16.3553 17.6854C16.3553 17.0401 16.6429 16.4213 17.1549 15.9651C17.6669 15.5089 18.3614 15.2526 19.0854 15.2526Z" fill="#EBEBEB"/>
<path d="M28.499 61.715C30.159 60.6729 31.4035 59.1867 32.0521 57.472C32.7007 55.7573 32.7196 53.903 32.1062 52.1781C31.4928 50.4531 30.2788 48.947 28.6403 47.8781C27.0019 46.8092 25.024 46.233 22.9933 46.233C20.9626 46.233 18.9847 46.8092 17.3462 47.8781C15.7078 48.947 14.4938 50.4531 13.8804 52.1781C13.267 53.903 13.2859 55.7573 13.9345 57.472C14.5831 59.1867 15.8276 60.6729 17.4876 61.715C14.543 62.7131 12.008 64.4845 10.2182 66.7948C8.42835 69.1051 7.46809 71.8452 7.46454 74.6525V80.7433C7.46454 81.0697 7.61002 81.3827 7.86898 81.6134C8.12794 81.8442 8.47917 81.9738 8.8454 81.9738C9.21162 81.9738 9.56285 81.8442 9.82181 81.6134C10.0808 81.3827 10.2263 81.0697 10.2263 80.7433V74.6543C10.2263 71.6366 11.5716 68.7424 13.9662 66.6086C16.3609 64.4747 19.6087 63.276 22.9953 63.276C26.3818 63.276 29.6297 64.4747 32.0243 66.6086C34.419 68.7424 35.7643 71.6366 35.7643 74.6543V80.7451C35.7643 81.0714 35.9097 81.3844 36.1687 81.6152C36.4277 81.8459 36.7789 81.9756 37.1451 81.9756C37.5114 81.9756 37.8626 81.8459 38.1215 81.6152C38.3805 81.3844 38.526 81.0714 38.526 80.7451V74.6543C38.5217 71.8464 37.5607 69.1059 35.7702 66.7954C33.9797 64.4849 31.4441 62.7133 28.499 61.715ZM16.1916 54.7558C16.1923 53.5573 16.5919 52.3858 17.3398 51.3895C18.0876 50.3933 19.1502 49.617 20.3931 49.1588C21.636 48.7006 23.0035 48.5811 24.3227 48.8153C25.6418 49.0496 26.8534 49.6271 27.8042 50.4749C28.7551 51.3227 29.4025 52.4026 29.6646 53.5782C29.9267 54.7538 29.7918 55.9723 29.2769 57.0796C28.762 58.1869 27.8902 59.1333 26.7717 59.7991C25.6533 60.4649 24.3384 60.8203 22.9933 60.8203C21.1893 60.8184 19.4599 60.1788 18.1847 59.0418C16.9094 57.9048 16.1926 56.3633 16.1916 54.7558Z" fill="#EBEBEB"/>
<path d="M75.3221 18.1757C77.6768 16.0775 77.6768 12.6756 75.3221 10.5774C72.9675 8.47915 69.1498 8.47915 66.7951 10.5774C64.4405 12.6756 64.4405 16.0775 66.7951 18.1757C69.1498 20.2739 72.9675 20.2739 75.3221 18.1757Z" fill="#EBEBEB"/>
<path d="M81.4983 30.6773C81.4983 28.2125 80.3995 25.8487 78.4436 24.1058C76.4877 22.3629 73.835 21.3838 71.0689 21.3838C68.3028 21.3838 65.6501 22.3629 63.6942 24.1058C61.7383 25.8487 60.6395 28.2125 60.6395 30.6773V34.3055H81.4983V30.6773Z" fill="#EBEBEB"/>
<path d="M88.306 38.1639H48.4583C47.0718 38.1653 45.7426 38.6567 44.7622 39.5303C43.7818 40.4039 43.2304 41.5884 43.2288 42.8238V52.5586L36.0523 56.0742C35.8276 56.1842 35.6418 56.3478 35.5155 56.5466C35.3892 56.7454 35.3276 56.9716 35.3374 57.1998C35.3472 57.4281 35.4282 57.6494 35.5712 57.839C35.7141 58.0285 35.9135 58.1789 36.147 58.2733L43.2288 61.1209V65.6438C43.2304 66.8794 43.7818 68.064 44.7621 68.9379C45.7424 69.8118 47.0717 70.3036 48.4583 70.3055H88.306C89.6926 70.3036 91.0219 69.8118 92.0022 68.9379C92.9825 68.064 93.5339 66.8794 93.5355 65.6438V42.8238C93.5339 41.5884 92.9825 40.4039 92.0021 39.5303C91.0217 38.6567 89.6924 38.1653 88.306 38.1639ZM90.7757 65.6385C90.7747 66.2219 90.5142 66.7811 90.0512 67.1937C89.5883 67.6062 88.9607 67.8383 88.306 67.8393H48.4583C47.8036 67.8383 47.176 67.6062 46.7131 67.1937C46.2501 66.7811 45.9896 66.2219 45.9886 65.6385V60.3211C45.9885 60.0843 45.9119 59.8525 45.7677 59.6536C45.6235 59.4547 45.418 59.297 45.1758 59.1996L39.8043 57.0393L45.2725 54.3674C45.4894 54.2612 45.6704 54.105 45.7964 53.9151C45.9223 53.7252 45.9887 53.5087 45.9886 53.2881V42.8238C45.9896 42.2404 46.2501 41.6812 46.7131 41.2687C47.176 40.8562 47.8036 40.624 48.4583 40.6231H88.306C88.9607 40.624 89.5883 40.8562 90.0512 41.2687C90.5142 41.6812 90.7747 42.2404 90.7757 42.8238V65.6385Z" fill="#EBEBEB"/>
<path d="M55.7295 50.0853C54.809 50.085 53.9091 50.3279 53.1436 50.7833C52.3781 51.2387 51.7813 51.8862 51.4288 52.6439C51.0763 53.4016 50.9839 54.2354 51.1632 55.0399C51.3425 55.8444 51.7856 56.5834 52.4363 57.1635C53.087 57.7436 53.9162 58.1387 54.819 58.2989C55.7217 58.459 56.6575 58.377 57.5079 58.0632C58.3583 57.7494 59.0852 57.2179 59.5966 56.536C60.1081 55.854 60.381 55.0522 60.381 54.232C60.38 53.1328 59.8896 52.0789 59.0176 51.3015C58.1455 50.5241 56.963 50.0867 55.7295 50.0853ZM55.7295 55.9177C55.3548 55.9181 54.9884 55.8194 54.6767 55.6341C54.3649 55.4488 54.1219 55.1853 53.9783 54.8768C53.8347 54.5684 53.7971 54.229 53.8701 53.9015C53.9431 53.574 54.1235 53.2731 54.3885 53.037C54.6534 52.8009 54.991 52.6401 55.3586 52.5751C55.7261 52.51 56.107 52.5436 56.4531 52.6715C56.7993 52.7995 57.095 53.016 57.3029 53.2938C57.5109 53.5716 57.6217 53.8981 57.6213 54.232C57.6208 54.679 57.4213 55.1075 57.0666 55.4235C56.712 55.7395 56.2311 55.9173 55.7295 55.9177Z" fill="#EBEBEB"/>
<path d="M68.3802 50.0853C67.4598 50.0853 66.5601 50.3285 65.7948 50.7842C65.0295 51.2398 64.4331 51.8874 64.0809 52.6451C63.7287 53.4028 63.6365 54.2366 63.8161 55.041C63.9956 55.8454 64.4388 56.5842 65.0896 57.1642C65.7404 57.7441 66.5696 58.139 67.4723 58.299C68.375 58.459 69.3107 58.3769 70.161 58.063C71.0113 57.7492 71.7381 57.2177 72.2494 56.5358C72.7607 55.8539 73.0337 55.0521 73.0337 54.232C73.0326 53.1325 72.542 52.0783 71.6695 51.3009C70.797 50.5234 69.614 50.0863 68.3802 50.0853ZM68.3802 55.9177C68.0055 55.9177 67.6393 55.8187 67.3278 55.6332C67.0164 55.4477 66.7736 55.1841 66.6304 54.8756C66.4871 54.5672 66.4497 54.2278 66.5229 53.9004C66.5962 53.573 66.7767 53.2723 67.0418 53.0364C67.3068 52.8005 67.6444 52.6399 68.0119 52.575C68.3794 52.51 68.7602 52.5437 69.1062 52.6717C69.4522 52.7997 69.7479 53.0163 69.9557 53.294C70.1636 53.5717 70.2743 53.8982 70.2739 54.232C70.2734 54.6793 70.0736 55.108 69.7185 55.4241C69.3634 55.7402 68.8821 55.9177 68.3802 55.9177Z" fill="#EBEBEB"/>
<path d="M81.0328 50.0853C80.1124 50.0853 79.2127 50.3285 78.4474 50.7842C77.6822 51.2398 77.0857 51.8874 76.7335 52.6451C76.3813 53.4028 76.2891 54.2366 76.4687 55.041C76.6482 55.8454 77.0915 56.5842 77.7423 57.1642C78.3931 57.7441 79.2222 58.139 80.1249 58.299C81.0276 58.459 81.9633 58.3769 82.8136 58.063C83.6639 57.7492 84.3907 57.2177 84.902 56.5358C85.4133 55.8539 85.6863 55.0521 85.6863 54.232C85.6847 53.1327 85.1939 52.0788 84.3216 51.3014C83.4492 50.5241 82.2665 50.0867 81.0328 50.0853ZM81.0328 55.9177C80.6581 55.9181 80.2916 55.8194 79.9799 55.6341C79.6682 55.4488 79.4252 55.1853 79.2816 54.8768C79.138 54.5684 79.1003 54.229 79.1733 53.9015C79.2463 53.574 79.4268 53.2731 79.6917 53.037C79.9567 52.8009 80.2943 52.6401 80.6618 52.5751C81.0294 52.51 81.4103 52.5436 81.7564 52.6715C82.1025 52.7995 82.3983 53.016 82.6062 53.2938C82.8142 53.5716 82.9249 53.8981 82.9245 54.232C82.924 54.6789 82.7245 55.1075 82.3699 55.4235C82.0152 55.7395 81.5343 55.9173 81.0328 55.9177Z" fill="#EBEBEB"/>
</svg>
