<svg width="20" height="20" viewBox="0 0 20 20" fill="none" xmlns="http://www.w3.org/2000/svg">
<g clip-path="url(#clip0_1275_59990)">
<path d="M16.627 16.6301C20.2882 12.9689 20.2882 7.03302 16.627 3.37185C12.9658 -0.289315 7.02992 -0.289315 3.36875 3.37185C-0.292415 7.03302 -0.292415 12.9689 3.36875 16.6301C7.02992 20.2913 12.9658 20.2913 16.627 16.6301Z" fill="#FF3D54"/>
<path fill-rule="evenodd" clip-rule="evenodd" d="M19.1955 11.8337C18.3432 16.134 14.5505 19.3762 10 19.3762C9.72733 19.3762 9.45757 19.3639 9.19077 19.3411L4.38417 14.5345C4.19806 14.3814 4.04114 14.196 3.92097 13.9872C3.5628 13.3668 3.5628 12.6182 3.92097 11.9979L8.27722 4.45266C8.63538 3.8323 9.2837 3.45801 9.99999 3.45801C10.582 3.45801 11.1191 3.70512 11.4922 4.13051L19.1955 11.8337Z" fill="#DC1B31"/>
<path fill-rule="evenodd" clip-rule="evenodd" d="M10 11.0139C9.7198 11.0139 9.48968 10.792 9.47956 10.5119L9.34792 6.86637C9.34261 6.71973 9.39167 6.59164 9.49355 6.48602C9.59538 6.38043 9.72167 6.3268 9.86839 6.3268H10.1317C10.2784 6.3268 10.4047 6.38043 10.5066 6.48602C10.6084 6.5916 10.6575 6.71977 10.6521 6.86637L10.5205 10.5119C10.5103 10.792 10.2802 11.0139 10 11.0139ZM9.99999 12.2048C10.3685 12.2048 10.6672 12.5036 10.6672 12.872C10.6672 13.2405 10.3685 13.5392 9.99999 13.5392C9.63151 13.5392 9.33284 13.2405 9.33284 12.872C9.3328 12.5036 9.63151 12.2048 9.99999 12.2048ZM11.7228 4.45266C11.3646 3.8323 10.7163 3.45801 9.99999 3.45801C9.2837 3.45801 8.63534 3.8323 8.27722 4.45266L3.92097 11.9979C3.5628 12.6182 3.5628 13.3669 3.92097 13.9872C4.27913 14.6075 4.92745 14.9818 5.64374 14.9818H14.3562C15.0725 14.9818 15.7209 14.6075 16.079 13.9872C16.4372 13.3668 16.4372 12.6182 16.079 11.9979L11.7228 4.45266Z" fill="white"/>
</g>
<defs>
<clipPath id="clip0_1275_59990">
<rect width="20" height="20" fill="white"/>
</clipPath>
</defs>
</svg>
