<svg width="91" height="82" viewBox="0 0 91 82" fill="none" xmlns="http://www.w3.org/2000/svg">
<path d="M45.5 7.6875C34.0966 7.6875 23.3898 11.685 15.3278 18.9369C7.28 26.2016 2.84375 35.8494 2.84375 46.125C2.84375 46.5863 2.85797 47.0347 2.88641 47.4831C2.92906 48.1622 3.55469 48.6875 4.30828 48.6875H18.5128C18.8967 48.6875 19.2664 48.5466 19.5366 48.3031C19.8067 48.0597 19.9489 47.7138 19.9347 47.3678C19.9347 46.9578 19.9062 46.535 19.9062 46.125C19.9062 33.4022 31.395 23.0625 45.5 23.0625C48.1589 23.0625 50.7467 23.4469 53.2208 24.1516L39.0873 44.9463C38.7745 45.4075 38.8172 45.9969 39.1869 46.4197L40.8647 48.3031C40.2106 49.1359 39.8125 50.1609 39.8125 51.2628C39.8125 54.0944 42.3577 56.3878 45.5 56.3878C48.4433 56.3878 50.832 54.3634 51.1306 51.7881L53.9175 51.3013C54.5005 51.1987 54.9555 50.7759 55.055 50.2378L59.1358 26.6372C66.558 30.8397 71.0938 38.1428 71.0938 46.125C71.0938 46.535 71.0938 46.9578 71.0653 47.3678C71.0653 47.7138 71.1933 48.0469 71.4634 48.3031C71.7336 48.5466 72.1033 48.6875 72.4872 48.6875H86.6917C87.4453 48.6875 88.0567 48.1622 88.1136 47.4831C88.142 47.0347 88.1562 46.5863 88.1562 46.125C88.1562 35.8494 83.72 26.2016 75.6722 18.9369C67.6244 11.685 56.9034 7.6875 45.5 7.6875ZM17.0625 46.125H5.6875C5.6875 36.9641 9.46969 28.3412 16.3658 21.6788L24.442 28.9563C19.8778 33.5047 17.0625 39.5138 17.0625 46.125ZM44.0781 20.5641C37.31 20.8716 31.1675 23.3059 26.4611 27.1497L18.3848 19.8722C25.4231 13.9528 34.452 10.5831 44.0923 10.2884V20.5769L44.0781 20.5641ZM45.5 53.8125C43.9359 53.8125 42.6562 52.6594 42.6562 51.25C42.6562 49.8406 43.9359 48.6875 45.5 48.6875C47.0641 48.6875 48.3438 49.8406 48.3438 51.25C48.3438 52.6594 47.0641 53.8125 45.5 53.8125ZM52.3961 48.9438L50.7183 49.2384C49.8509 47.4191 47.8319 46.125 45.5 46.125C44.6184 46.125 43.7938 46.3172 43.0544 46.6503L42.0448 45.51L56.747 23.8697L52.4103 48.9438H52.3961ZM59.605 23.9081L60.643 17.9503C60.7425 17.3481 60.3586 16.7587 59.733 16.5538C59.1073 16.3488 58.3822 16.5538 58.0267 17.0919L54.7422 21.9222C52.2397 21.1406 49.6234 20.6794 46.9219 20.5641V10.2756C56.548 10.5831 65.5911 13.94 72.6294 19.8594L64.5673 27.1241C63.0602 25.9069 61.4108 24.8306 59.605 23.8953V23.9081ZM73.9375 46.125C73.9375 39.6419 71.2502 33.5688 66.5864 28.9434L74.6342 21.6916C81.5303 28.3541 85.3125 36.9769 85.3125 46.1378H73.9375V46.125Z" fill="#E5E5E5"/>
<path d="M45.5 66.625C55.6948 66.625 63.9844 59.1553 63.9844 49.9688H61.1406C61.1406 57.7459 54.1308 64.0625 45.5 64.0625C36.8692 64.0625 29.8594 57.7459 29.8594 49.9688H27.0156C27.0156 59.1553 35.3052 66.625 45.5 66.625Z" fill="#E5E5E5"/>
<path d="M17.7023 54.0816C20.475 65.805 32.1628 74.3125 45.5 74.3125C58.8372 74.3125 70.5108 65.805 73.2977 54.0816L70.5108 53.5435C68.0083 64.0881 57.4864 71.75 45.5 71.75C33.5136 71.75 22.9917 64.0881 20.4892 53.5435L17.7023 54.0816Z" fill="#E5E5E5"/>
</svg>
