<svg width="104" height="93" viewBox="0 0 104 93" fill="none" xmlns="http://www.w3.org/2000/svg">
<path d="M17.8201 87.1675C17.1539 87.2057 16.5283 87.2256 15.9392 87.2256C7.71466 87.2256 6.68481 83.4875 5.04763 77.5533C4.57841 75.8513 4.04622 73.9241 3.27028 71.768C2.60606 70.0079 3.44294 67.7992 5.63263 65.5596C7.27388 63.883 9.52247 62.3718 11.1048 61.8868C13.1848 61.2492 13.7617 62.5552 13.8206 62.706L17.9948 73.5318C19.435 75.8967 20.2373 76.4453 22.6281 75.5534C23.2497 75.3227 23.9626 75.5843 24.2226 76.1401C24.4806 76.6959 24.1881 77.3335 23.5665 77.566C22.5083 77.9602 21.5983 78.1327 20.8081 78.1327C18.2711 78.1327 16.9406 76.369 15.8051 74.4926C15.7726 74.44 15.7462 74.3855 15.7239 74.3292L11.7386 63.9956C10.6153 64.408 8.13919 65.99 6.59747 67.9917C5.65497 69.2178 5.29544 70.3167 5.58591 71.0869C6.39231 73.3283 6.93466 75.2955 7.41403 77.032C9.15278 83.3331 9.73778 85.4565 17.6617 84.9933C18.332 84.957 18.9129 85.4092 18.9576 86.0105C19.0023 86.6117 18.4925 87.1276 17.8201 87.1675ZM62.0709 48.3364C61.3051 46.9941 59.5969 46.1276 57.7159 46.1276H45.8087C43.6028 46.1276 42.705 47.7206 41.9839 49.003C41.8904 49.1701 41.795 49.339 41.6954 49.508L18.5818 88.677C18.267 89.2092 18.4965 89.8685 19.0917 90.1501C19.6868 90.4298 20.4242 90.2263 20.739 89.6941L43.8526 50.5233C43.9583 50.3435 44.0618 50.1619 44.1614 49.9821C44.8804 48.7051 45.2014 48.3073 45.8087 48.3073H57.7159C58.6584 48.3073 59.5562 48.7269 59.8995 49.3263L82.8994 89.6814C83.1147 90.0592 83.5433 90.2772 83.9861 90.2772C84.173 90.2772 84.3619 90.2391 84.5386 90.1573C85.1378 89.8849 85.3775 89.2273 85.0708 88.6915L62.0709 48.3364ZM23.1806 52.1399L26.3493 60.3574C26.3717 60.4137 26.3981 60.4682 26.4286 60.5208L26.5768 60.7679C27.7225 62.6733 28.9087 64.6441 32.5914 63.2709C33.2129 63.0402 33.5075 62.4008 33.2475 61.845C32.9895 61.2892 32.2745 61.0276 31.6529 61.2583C30.0097 61.8704 29.8614 61.627 28.7218 59.7343L28.6183 59.5636L25.22 50.7504C25.1651 50.6087 24.6228 49.3754 22.7215 49.9584C20.2231 50.725 14.9134 54.8736 16.1931 58.2649C16.904 60.2393 17.3245 61.9685 17.6962 63.4925C18.789 67.9717 19.5365 71.0324 26.2051 71.0324C26.6764 71.0324 27.1781 71.0179 27.7103 70.9852C28.3826 70.9452 28.8904 70.4275 28.8478 69.8263C28.8031 69.2251 28.2222 68.771 27.5518 68.8091C21.5759 69.1597 21.2286 67.7374 20.0789 63.0257C19.695 61.4527 19.2603 59.6708 18.5087 57.5801C18.3097 57.0551 18.5433 56.2886 19.1668 55.4222C20.28 53.8801 22.1853 52.5813 23.1806 52.1399ZM32.5284 43.2305L34.6165 48.6452C34.6389 48.7015 34.6653 48.756 34.6978 48.8087L34.8014 48.9812C35.6017 50.3108 36.597 51.9656 39.4895 50.8884C40.1111 50.6578 40.4056 50.0184 40.1456 49.4626C39.8876 48.9067 39.1726 48.6452 38.5511 48.8759C38.0879 49.0484 37.8056 49.0793 37.7304 49.0321C37.5253 48.9067 37.2308 48.4199 36.9484 47.9477L36.8895 47.8496L34.5089 41.6738C34.324 41.1979 33.6476 40.5022 32.2928 40.9182C30.3834 41.5049 26.4875 44.5564 27.4747 47.1666C27.9683 48.5416 28.2628 49.7495 28.5228 50.814C29.3028 54.009 29.8776 56.3722 34.8664 56.3722C35.2056 56.3722 35.5651 56.3613 35.945 56.3395C36.6173 56.2995 37.1251 55.7818 37.0825 55.1806C37.0378 54.5794 36.4609 54.1253 35.7865 54.1634C33.282 54.3105 32.5203 53.9055 32.1364 53.5386C31.5453 52.9719 31.2772 51.8729 30.9054 50.349C30.6475 49.29 30.3265 47.9731 29.7903 46.4837C29.7009 46.2457 29.8147 45.8552 30.1011 45.4102C30.6861 44.4947 31.7931 43.6464 32.5284 43.2305ZM98.3673 64.9147C96.7261 63.2382 94.4775 61.7269 92.8951 61.242C90.8151 60.6044 90.2383 61.9104 90.1794 62.063L86.0051 72.8869C84.565 75.2519 83.7647 75.8004 81.3719 74.9086C80.7503 74.6779 80.0373 74.9395 79.7773 75.4953C79.5194 76.0511 79.8119 76.6887 80.4334 76.9212C84.8798 78.5777 86.7059 76.3109 88.1948 73.846C88.2273 73.7933 88.2537 73.7388 88.2761 73.6825L92.2614 63.349C93.3847 63.7613 95.8608 65.3434 97.4025 67.3451C98.345 68.5693 98.7045 69.6701 98.408 70.4566C97.6076 72.6835 97.0653 74.6507 96.5859 76.3853C94.8472 82.6864 94.2622 84.8098 86.3383 84.3466C85.6679 84.3067 85.087 84.7626 85.0423 85.3638C84.9976 85.9651 85.5075 86.4827 86.1798 86.5227C86.8461 86.5608 87.4717 86.5808 88.0608 86.5808C96.2833 86.5808 97.3151 82.8427 98.9523 76.9085C99.4215 75.2065 99.9537 73.2793 100.724 71.1395C101.394 69.3631 100.557 67.1544 98.3673 64.9147ZM83.919 62.3827C82.7694 67.0944 82.422 68.5148 76.4461 68.1661C75.7758 68.128 75.1948 68.5821 75.1501 69.1833C75.1054 69.7845 75.6153 70.3022 76.2876 70.3421C76.8219 70.373 77.3215 70.3894 77.7928 70.3894C84.4594 70.3894 85.2089 67.3287 86.3017 62.8495C86.6734 61.3255 87.0959 59.5981 87.8008 57.6364C89.0865 54.2288 83.7769 50.0801 81.2784 49.3136C79.3772 48.7305 78.8348 49.9621 78.7779 50.1092L75.3817 58.9188L75.2781 59.0895C74.1386 60.984 73.9923 61.2274 72.347 60.6135C71.7254 60.3828 71.0125 60.6444 70.7525 61.2002C70.4945 61.756 70.787 62.3936 71.4086 62.6261C75.0912 63.9974 76.2754 62.0285 77.4231 60.123L77.5714 59.876C77.6039 59.8233 77.6303 59.7688 77.6506 59.7125L80.8194 51.4951C81.8167 51.9347 83.72 53.2334 84.8311 54.7792C85.4526 55.6456 85.6862 56.4121 85.4831 56.9534C84.7376 59.0278 84.3029 60.8097 83.919 62.3827ZM73.0986 49.7023C72.7269 51.2245 72.4587 52.3252 71.8676 52.8919C71.4837 53.2607 70.722 53.6639 68.2175 53.5168C67.5431 53.4768 66.9662 53.9327 66.9215 54.534C66.8769 55.1352 67.3867 55.6529 68.059 55.6928C68.4409 55.7146 68.7984 55.7255 69.1376 55.7255C74.1244 55.7255 74.7012 53.3606 75.4812 50.1673C75.7412 49.1011 76.0358 47.895 76.5253 46.5345C77.5165 43.9098 73.6206 40.8564 71.7112 40.2715C70.3564 39.8556 69.68 40.5513 69.4931 41.0308L67.1125 47.2029L67.0536 47.301C66.7692 47.7733 66.4767 48.2601 66.2715 48.3854C66.1964 48.4308 65.912 48.4 65.4509 48.2292C64.8294 47.9967 64.1164 48.2601 63.8564 48.8159C63.5984 49.3717 63.8909 50.0093 64.5125 50.2418C67.405 51.3189 68.4003 49.6642 69.2006 48.3346L69.3042 48.162C69.3367 48.1093 69.3631 48.0548 69.3854 47.9985L71.4736 42.5838C72.2089 42.9998 73.3159 43.848 73.905 44.7653C74.1914 45.2104 74.3051 45.6009 74.2097 45.8534C73.6775 47.3283 73.3565 48.6452 73.0986 49.7023ZM12.1915 48.38H23.7493C24.4217 48.38 24.9681 47.8914 24.9681 47.2901C24.9681 46.6889 24.4217 46.2003 23.7493 46.2003H13.4103V4.9043H90.5897V46.2003H83.5758C82.9034 46.2003 82.357 46.6889 82.357 47.2901C82.357 47.8914 82.9034 48.38 83.5758 48.38H91.8084C92.4808 48.38 93.0272 47.8914 93.0272 47.2901V3.81445C93.0272 3.21322 92.4808 2.72461 91.8084 2.72461H12.1915C11.5192 2.72461 10.9728 3.21322 10.9728 3.81445V47.2901C10.9728 47.8932 11.5192 48.38 12.1915 48.38ZM48.7154 36.6678V28.4595C48.7154 27.8582 49.2618 27.3696 49.9342 27.3696H54.6873C55.3597 27.3696 55.9061 27.8582 55.9061 28.4595V36.6678C55.9061 37.269 55.3597 37.7576 54.6873 37.7576H49.9342C49.2598 37.7576 48.7154 37.269 48.7154 36.6678ZM51.1529 35.5779H53.4686V29.5493H51.1529V35.5779ZM42.5567 32.154C40.6128 33.945 38.027 34.9313 35.2726 34.9313C29.6034 34.9313 24.9904 30.6936 24.9904 25.486C24.9904 20.2784 29.6034 16.0407 35.2726 16.0407H35.3112H35.3153C35.9734 16.0588 36.4954 16.542 36.4954 17.1305L36.4934 24.3943H44.3381C45.0104 24.3943 45.5568 24.8829 45.5568 25.4842C45.5548 28.0054 44.4904 30.3721 42.5567 32.154ZM43.03 26.5777H35.2726C34.9497 26.5777 34.6389 26.4632 34.4114 26.258C34.1818 26.0527 34.0539 25.7766 34.0539 25.4878L34.0559 18.3112C30.3062 18.8543 27.4279 21.8659 27.4279 25.4896C27.4279 29.4948 30.9461 32.7553 35.2726 32.7553C39.199 32.7534 42.4592 30.0688 43.03 26.5777ZM47.6551 23.5188H38.5937C37.9214 23.5188 37.375 23.0302 37.375 22.429V14.0735C37.375 13.4723 37.9214 12.9837 38.5937 12.9837C44.2629 12.9837 48.8759 17.2195 48.8759 22.429C48.8739 23.0302 48.3295 23.5188 47.6551 23.5188ZM46.349 21.3391C45.8392 18.2167 43.1762 15.7392 39.8125 15.2524V21.3391H46.349ZM64.4211 37.7576H59.6679C58.9956 37.7576 58.4492 37.269 58.4492 36.6678V23.9148C58.4492 23.3136 58.9956 22.825 59.6679 22.825H64.4211C65.0934 22.825 65.6398 23.3136 65.6398 23.9148V36.6678C65.6398 37.269 65.0934 37.7576 64.4211 37.7576ZM63.2023 25.0046H60.8867V35.5779H63.2023V25.0046ZM69.4017 37.7576C68.7294 37.7576 68.183 37.269 68.183 36.6678V19.352C68.183 18.7508 68.7294 18.2621 69.4017 18.2621H74.1548C74.8272 18.2621 75.3736 18.7508 75.3736 19.352V36.6678C75.3736 37.269 74.8272 37.7576 74.1548 37.7576H69.4017ZM70.6205 35.5779H72.9361V20.4418H70.6205V35.5779Z" fill="#EBEBEB"/>
</svg>
