<svg width="102" height="91" viewBox="0 0 102 91" fill="none" xmlns="http://www.w3.org/2000/svg">
<path d="M20.1478 62.1404H3.88496C1.74296 62.1404 0 63.6952 0 65.6064V80.1154C0 82.0265 1.74296 83.5814 3.88496 83.5814H20.1478C22.29 83.5814 24.0328 82.0264 24.0328 80.1154V65.6064C24.0328 63.6952 22.29 62.1404 20.1478 62.1404ZM21.0443 80.1154C21.0443 80.5489 20.6337 80.9152 20.1478 80.9152H3.88496C3.39907 80.9152 2.98848 80.5489 2.98848 80.1154V65.6064C2.98848 65.1729 3.39907 64.8066 3.88496 64.8066H20.1478C20.6337 64.8066 21.0443 65.1729 21.0443 65.6064V80.1154Z" fill="#E5E5E5"/>
<path d="M96.189 36.8378H42.589C39.3847 36.8378 36.778 39.1634 36.778 42.0221V53.0946C36.778 55.9533 39.3847 58.2789 42.589 58.2789H96.189C99.3932 58.2789 102 55.9533 102 53.0946V42.0221C102 39.1634 99.393 36.8378 96.189 36.8378ZM99.0115 53.0946C99.0115 54.4832 97.7455 55.6127 96.189 55.6127H42.589C41.0325 55.6127 39.7664 54.4832 39.7664 53.0946V42.0221C39.7664 40.6336 41.0325 39.504 42.589 39.504H96.189C97.7455 39.504 99.0115 40.6335 99.0115 42.0221V53.0946Z" fill="#E5E5E5"/>
<path d="M45.4715 22.2559C45.4715 22.9921 46.1404 23.5889 46.9656 23.5889H91.8123C92.6375 23.5889 93.3065 22.9921 93.3065 22.2559C93.3065 21.5197 92.6375 20.9229 91.8123 20.9229H46.9656C46.1404 20.9229 45.4715 21.5196 45.4715 22.2559Z" fill="#E5E5E5"/>
<path d="M91.8121 46.2253H46.9656C46.1404 46.2253 45.4715 46.822 45.4715 47.5583C45.4715 48.2947 46.1404 48.8914 46.9656 48.8914H91.8123C92.6375 48.8914 93.3065 48.2947 93.3065 47.5583C93.3065 46.822 92.6375 46.2253 91.8121 46.2253Z" fill="#E5E5E5"/>
<path d="M93.3063 72.8608C93.3063 72.1244 92.6373 71.5278 91.8121 71.5278H46.9656C46.1404 71.5278 45.4715 72.1244 45.4715 72.8608C45.4715 73.5971 46.1404 74.1938 46.9656 74.1938H91.8123C92.6375 74.1938 93.3063 73.5971 93.3063 72.8608Z" fill="#E5E5E5"/>
<path d="M32.4446 33.8104C30.3117 32.1814 27.0912 32.4043 25.2657 34.3073L21.7854 37.9347C20.7795 37.233 19.534 36.8375 18.2219 36.8375H5.81101C2.60678 36.8377 0 39.1634 0 42.0221V53.0946C0 55.9532 2.60678 58.2789 5.81101 58.2789H18.2217C21.426 58.2789 24.0328 55.9532 24.0328 53.0946V49.5632L33.0014 40.2156C33.8857 39.2938 34.315 38.1199 34.2096 36.9101C34.1045 35.7004 33.4777 34.5997 32.4446 33.8104ZM21.0445 53.0946C21.0443 54.4832 19.7782 55.6127 18.2217 55.6127H5.81101C4.25472 55.6127 2.98848 54.4832 2.98848 53.0946V42.0221C2.98848 40.6336 4.25452 39.5039 5.81101 39.5039C19.2967 39.5039 18.8662 39.3496 19.8384 39.9637L16.5142 43.4285C15.4616 42.2078 15.3767 42.0869 15.0237 41.7857C12.0147 39.2187 6.99537 40.8081 6.45788 44.4835C6.28197 45.6868 6.64195 46.879 7.4711 47.8406L12.2679 53.4036C12.5028 53.6759 12.7679 53.9207 13.0574 54.135C14.0041 54.8356 15.1986 55.1749 16.1724 55.1749C18.9365 55.1749 20.0109 53.7548 21.0443 52.6778L21.0445 53.0946ZM30.7311 38.4816L17.9008 51.8543C17.036 52.7554 15.452 52.7242 14.6364 51.7781L9.83961 46.2148C8.42317 44.5731 10.6166 42.407 12.5914 43.466C13.0508 43.7123 13.068 43.8047 15.2679 46.3561C15.8435 47.0235 16.9677 47.0562 17.5874 46.4101L22.9731 40.7971C22.9733 40.7968 22.9735 40.7966 22.9737 40.7962L27.5356 36.0413C28.2899 35.2555 29.6198 35.1636 30.501 35.836C30.9277 36.162 31.1867 36.6168 31.2301 37.1164C31.2738 37.616 31.0965 38.1009 30.7311 38.4816Z" fill="#E5E5E5"/>
<path d="M5.81101 32.9763H18.2217C21.426 32.9763 24.0328 30.6506 24.0328 27.792V24.2607L33.0014 14.9132C34.827 13.0103 34.5774 10.1371 32.4446 8.50832C30.3115 6.87938 27.0914 7.10244 25.2655 9.00526L21.7852 12.6326C20.7793 11.9308 19.5336 11.5355 18.2217 11.5355H5.81101C2.60678 11.5355 0 13.861 0 16.7196V27.792C0 30.6506 2.60678 32.9763 5.81101 32.9763ZM27.5356 10.7389C28.2899 9.95294 29.6198 9.86087 30.501 10.5334C31.3817 11.2063 31.4849 12.3932 30.7309 13.1792L17.9008 26.5517C17.0414 27.4475 15.4568 27.4273 14.6364 26.4757L9.83981 20.9126C8.73335 19.6297 9.85336 17.7637 11.6832 17.9021C12.8606 17.9912 13.102 18.5416 15.2681 21.0535C15.8538 21.7326 16.9806 21.7405 17.5876 21.1076C18.6793 19.9697 26.5256 11.792 27.5356 10.7389ZM2.98848 16.7196C2.98848 15.331 4.25452 14.2015 5.81101 14.2015C19.2967 14.2015 18.8662 14.0472 19.8386 14.6613L16.5142 18.1261C15.4725 16.9178 15.359 16.7561 14.9324 16.4093C11.8956 13.9424 6.98859 15.5526 6.45788 19.1809C6.28196 20.3842 6.64195 21.5764 7.4711 22.538L12.2677 28.1009C14.2559 30.4068 18.0899 30.4541 20.1711 28.2852L21.0441 27.3752V27.7918C21.0441 29.1804 19.778 30.3099 18.2215 30.3099H5.81101C4.25471 30.3099 2.98848 29.1804 2.98848 27.7918V16.7196Z" fill="#E5E5E5"/>
<path d="M96.189 11.5355H72.8754C72.0502 11.5355 71.3813 12.1323 71.3813 12.8685C71.3813 13.6046 72.0502 14.2015 72.8754 14.2015H96.189C97.7455 14.2015 99.0115 15.331 99.0115 16.7196V27.7919C99.0115 29.1806 97.7455 30.3101 96.189 30.3101H42.589C41.0325 30.3101 39.7664 29.1806 39.7664 27.7919V16.7196C39.7664 15.331 41.0325 14.2015 42.589 14.2015H65.9025C66.7277 14.2015 67.3967 13.6046 67.3967 12.8685C67.3967 12.1323 66.7277 11.5355 65.9025 11.5355H42.589C39.3847 11.5355 36.778 13.8611 36.778 16.7198V27.7921C36.778 30.6508 39.3847 32.9764 42.589 32.9764H96.189C99.3932 32.9764 102 30.6508 102 27.7921V16.7196C102 13.8609 99.393 11.5355 96.189 11.5355Z" fill="#E5E5E5"/>
<path d="M96.189 62.1404H42.589C39.3847 62.1404 36.778 64.466 36.778 67.3247V78.397C36.778 81.2557 39.3847 83.5815 42.589 83.5815H65.9025C66.7277 83.5815 67.3967 82.9849 67.3967 82.2485C67.3967 81.5122 66.7277 80.9155 65.9025 80.9155H42.589C41.0325 80.9155 39.7664 79.786 39.7664 78.3972V67.3249C39.7664 65.9363 41.0325 64.8068 42.589 64.8068H96.189C97.7455 64.8068 99.0115 65.9363 99.0115 67.3249V78.3972C99.0115 79.7859 97.7455 80.9155 96.189 80.9155H72.8754C72.0502 80.9155 71.3813 81.5122 71.3813 82.2485C71.3813 82.9849 72.0502 83.5815 72.8754 83.5815H96.189C99.3932 83.5815 102 81.2557 102 78.397V67.3247C102 64.466 99.393 62.1404 96.189 62.1404Z" fill="#E5E5E5"/>
</svg>
